<svg width="24" height="24" viewBox="0 0 24 24" fill="none" xmlns="http://www.w3.org/2000/svg">
<path fill-rule="evenodd" clip-rule="evenodd" d="M16 13.2014H20.5C21.328 13.2014 22 12.5294 22 11.7014V11.7014C22 10.8734 21.328 10.2014 20.5 10.2014H17H12L13.494 7.21444C13.796 6.60944 13.678 5.87944 13.2 5.40144V5.40144C12.553 4.75444 11.492 4.79544 10.897 5.48944L6.482 10.6394C6.171 11.0014 6 11.4634 6 11.9414V17.4114C6 18.4304 6.766 19.2864 7.779 19.3994L13.073 19.9874C14.147 20.1064 15.121 19.3514 15.274 18.2824L16 13.2014V13.2014Z" stroke="white" stroke-width="1.5" stroke-linecap="round" stroke-linejoin="round"/>
<path fill-rule="evenodd" clip-rule="evenodd" d="M5 19.2012H3C2.448 19.2012 2 18.7532 2 18.2012V11.2012C2 10.6492 2.448 10.2012 3 10.2012H5C5.552 10.2012 6 10.6492 6 11.2012V18.2012C6 18.7532 5.552 19.2012 5 19.2012Z" stroke="white" stroke-width="1.5" stroke-linecap="round" stroke-linejoin="round"/>
</svg>
