<svg width="38" height="38" viewBox="0 0 38 38" fill="none" xmlns="http://www.w3.org/2000/svg">
<path d="M9.74514 28.2555C8.59247 26.5075 7.91797 24.4159 7.91797 22.166" stroke="#192024" stroke-width="2" stroke-linecap="round" stroke-linejoin="round"/>
<path d="M15.6602 10.9081C16.5912 10.1987 17.7391 9.76172 19.001 9.76172C22.0616 9.76172 24.5427 12.2428 24.5427 15.3034" stroke="#192024" stroke-width="2" stroke-linecap="round" stroke-linejoin="round"/>
<path d="M13.457 22.6934C13.457 25.7539 15.9381 28.235 18.9987 28.235C20.259 28.235 21.4069 27.798 22.3395 27.0887" stroke="#192024" stroke-width="2" stroke-linecap="round" stroke-linejoin="round"/>
<path d="M13.4596 16.3535V22.6868" stroke="#192024" stroke-width="2" stroke-linecap="round" stroke-linejoin="round"/>
<path d="M18.9987 15.834V22.1673" stroke="#192024" stroke-width="2" stroke-linecap="round" stroke-linejoin="round"/>
<path d="M24.5417 15.3125V21.6458" stroke="#192024" stroke-width="2" stroke-linecap="round" stroke-linejoin="round"/>
<path d="M19.0013 4.75C12.8801 4.75 7.91797 9.71217 7.91797 15.8333" stroke="#192024" stroke-width="2" stroke-linecap="round" stroke-linejoin="round"/>
<path d="M18.999 33.2479C17.1623 33.2479 15.4349 32.7935 13.9102 32.0034" stroke="#192024" stroke-width="2" stroke-linecap="round" stroke-linejoin="round"/>
<path d="M28.2578 9.74219C29.4105 11.4902 30.085 13.5818 30.085 15.8317" stroke="#192024" stroke-width="2" stroke-linecap="round" stroke-linejoin="round"/>
<path d="M19 33.2493C25.1212 33.2493 30.0833 28.2872 30.0833 22.166" stroke="#192024" stroke-width="2" stroke-linecap="round" stroke-linejoin="round"/>
<path d="M19 4.75145C20.8367 4.75145 22.5641 5.20586 24.0888 5.99595" stroke="#192024" stroke-width="2" stroke-linecap="round" stroke-linejoin="round"/>
</svg>
