<svg width="38" height="38" viewBox="0 0 38 38" fill="none" xmlns="http://www.w3.org/2000/svg">
<path d="M7.12503 19.7913V17.027C7.12182 16.481 7.34482 15.9581 7.74104 15.5825C8.13725 15.2069 8.67131 15.0121 9.2163 15.0445C12.656 15.154 16.0159 16.108 18.9998 17.8226C21.9838 16.108 25.3437 15.154 28.7834 15.0445C29.3284 15.0121 29.8625 15.2069 30.2587 15.5825C30.655 15.9581 30.878 16.481 30.8747 17.027L30.8748 19.7913" stroke="#192024" stroke-width="2" stroke-linecap="round" stroke-linejoin="round"/>
<path d="M7.125 26.125V28.8406C7.13065 29.6902 7.80255 30.3855 8.65141 30.4203C12.2962 30.3889 15.8783 31.3684 18.9999 33.25C22.1215 31.3683 25.7037 30.3888 29.3484 30.4203C30.1973 30.3855 30.8692 29.6902 30.8748 28.8406V26.125" stroke="#192024" stroke-width="2" stroke-linecap="round" stroke-linejoin="round"/>
<path d="M18.9987 17.8242V33.2512" stroke="#192024" stroke-width="2" stroke-linecap="round" stroke-linejoin="round"/>
<circle cx="18.9987" cy="7.52018" r="4.35417" stroke="#192024" stroke-width="2" stroke-linecap="round" stroke-linejoin="round"/>
<path fill-rule="evenodd" clip-rule="evenodd" d="M6.33333 19.791H7.91667C9.66557 19.791 11.0833 21.2088 11.0833 22.9577V22.9577C11.0833 24.7066 9.66557 26.1243 7.91667 26.1243H6.33333C5.45888 26.1243 4.75 25.4155 4.75 24.541V21.3743C4.75 20.4999 5.45888 19.791 6.33333 19.791Z" stroke="#192024" stroke-width="2" stroke-linecap="round" stroke-linejoin="round"/>
<path fill-rule="evenodd" clip-rule="evenodd" d="M31.6667 26.125H30.0833C28.3344 26.125 26.9167 24.7072 26.9167 22.9583V22.9583C26.9167 21.2094 28.3344 19.7917 30.0833 19.7917H31.6667C32.5411 19.7917 33.25 20.5005 33.25 21.375V24.5417C33.25 25.4161 32.5411 26.125 31.6667 26.125Z" stroke="#192024" stroke-width="2" stroke-linecap="round" stroke-linejoin="round"/>
</svg>
