<svg width="38" height="38" viewBox="0 0 38 38" fill="none" xmlns="http://www.w3.org/2000/svg">
<path fill-rule="evenodd" clip-rule="evenodd" d="M11.0833 33.25H26.9167C30.4143 33.25 33.25 30.4143 33.25 26.9167V11.0833C33.25 7.58575 30.4143 4.75 26.9167 4.75H11.0833C7.58575 4.75 4.75 7.58575 4.75 11.0833V26.9167C4.75 30.4143 7.58575 33.25 11.0833 33.25Z" stroke="#192024" stroke-width="2" stroke-linecap="round" stroke-linejoin="round"/>
<path d="M8.70833 19.0007H9.5" stroke="#192024" stroke-width="2" stroke-linecap="round" stroke-linejoin="round"/>
<path d="M29.293 19.0007H28.5013" stroke="#192024" stroke-width="2" stroke-linecap="round" stroke-linejoin="round"/>
<path d="M12.2837 25.7157L11.7137 26.2857" stroke="#192024" stroke-width="2" stroke-linecap="round" stroke-linejoin="round"/>
<path d="M25.7137 12.2857L26.2837 11.7157" stroke="#192024" stroke-width="2" stroke-linecap="round" stroke-linejoin="round"/>
<path d="M18.9987 28.4993V29.291" stroke="#192024" stroke-width="2" stroke-linecap="round" stroke-linejoin="round"/>
<path d="M18.9987 8.70833V9.5" stroke="#192024" stroke-width="2" stroke-linecap="round" stroke-linejoin="round"/>
<path d="M25.7137 25.7157L26.2837 26.2857" stroke="#192024" stroke-width="2" stroke-linecap="round" stroke-linejoin="round"/>
<path d="M11.7137 11.7157L12.2837 12.2857" stroke="#192024" stroke-width="2" stroke-linecap="round" stroke-linejoin="round"/>
<path d="M22.1667 22.1667L19 19V14.25" stroke="#192024" stroke-width="2" stroke-linecap="round" stroke-linejoin="round"/>
</svg>
