<svg width="38" height="38" viewBox="0 0 38 38" fill="none" xmlns="http://www.w3.org/2000/svg">
<ellipse cx="29.086" cy="8.8633" rx="3.16798" ry="3.16799" stroke="#192024" stroke-width="2" stroke-linecap="round" stroke-linejoin="round"/>
<path d="M26.5717 6.9347C20.827 3.30171 13.3221 4.19375 8.58909 9.07214C3.85606 13.9505 3.19139 21.479 6.99646 27.1112C10.8015 32.7434 18.0341 34.9366 24.3264 32.3663C30.6188 29.796 34.2474 23.1663 33.021 16.4808" stroke="#192024" stroke-width="2" stroke-linecap="round" stroke-linejoin="round"/>
<path fill-rule="evenodd" clip-rule="evenodd" d="M20.6794 13.3598L24.6399 17.3191C25.0855 17.7647 25.336 18.369 25.336 18.9992C25.336 19.6293 25.0859 20.2337 24.6403 20.6794L20.681 24.6399C20.2354 25.0855 19.6311 25.336 19.0009 25.336C18.3708 25.336 17.7664 25.0859 17.3207 24.6403L13.3602 20.681C12.9146 20.2354 12.6641 19.6311 12.6641 19.0009C12.6641 18.3708 12.9142 17.7664 13.3598 17.3207L17.3191 13.3602C17.7647 12.9146 18.369 12.6641 18.9992 12.6641C19.6293 12.6641 20.2337 12.9142 20.6794 13.3598V13.3598Z" stroke="#192024" stroke-width="2" stroke-linecap="round" stroke-linejoin="round"/>
</svg>
