<svg width="76" height="76" viewBox="0 0 76 76" fill="none" xmlns="http://www.w3.org/2000/svg">
<circle cx="38" cy="38" r="38" fill="#E4F1FC"/>
<path fill-rule="evenodd" clip-rule="evenodd" d="M34.2528 49.6758H41.7559C41.986 49.6758 42.1727 49.8625 42.1727 50.0926V53.0105C42.1727 53.9309 41.4258 54.6779 40.5054 54.6779H35.5033C34.5829 54.6779 33.8359 53.9309 33.8359 53.0105V50.0926C33.8359 49.8625 34.0227 49.6758 34.2528 49.6758Z" stroke="#192024" stroke-width="2.5" stroke-linecap="round" stroke-linejoin="round"/>
<path fill-rule="evenodd" clip-rule="evenodd" d="M38.0013 44.6712C40.949 44.6712 43.3385 39.4457 43.3385 32.9997C43.3385 26.5536 40.949 21.3281 38.0013 21.3281C35.0536 21.3281 32.6641 26.5536 32.6641 32.9997C32.6641 39.4457 35.0536 44.6712 38.0013 44.6712Z" stroke="#192024" stroke-width="2.5" stroke-linecap="round" stroke-linejoin="round"/>
<path d="M45.2677 44.6696H30.7383" stroke="#192024" stroke-width="2.5" stroke-linecap="round" stroke-linejoin="round"/>
<path d="M35.7398 49.6733L28.2417 42.1751C26.2209 40.1543 24.9737 37.4915 24.7152 34.6453V34.6453C24.065 27.494 29.6956 21.3281 36.877 21.3281H39.1296C46.3109 21.3281 51.9416 27.494 51.2913 34.6453V34.6453C51.0329 37.4899 49.784 40.1543 47.7648 42.1751L40.265 49.6733" stroke="#192024" stroke-width="2.5" stroke-linecap="round" stroke-linejoin="round"/>
</svg>
