<svg width="76" height="76" viewBox="0 0 76 76" fill="none" xmlns="http://www.w3.org/2000/svg">
<circle cx="38" cy="38" r="38" fill="#EEFCF2"/>
<path fill-rule="evenodd" clip-rule="evenodd" d="M42.166 52.1723V51.4954C42.1715 49.5694 43.7315 48.0094 45.6575 48.0039H51.1798C53.1058 48.0094 54.6657 49.5694 54.6712 51.4954V52.1723C54.6712 52.6327 54.298 53.006 53.8375 53.006H42.9997C42.5393 53.006 42.166 52.6327 42.166 52.1723Z" stroke="#192024" stroke-width="2.5" stroke-linecap="round" stroke-linejoin="round"/>
<path fill-rule="evenodd" clip-rule="evenodd" d="M45.209 41.4015C44.8047 39.953 45.4201 38.4132 46.7112 37.6421C48.0023 36.8711 49.6498 37.0596 50.7334 38.1025C51.8169 39.1453 52.0684 40.7843 51.3474 42.104C50.6264 43.4238 49.1112 44.0976 47.6483 43.7492C46.4689 43.4682 45.5348 42.5693 45.209 41.4015Z" stroke="#192024" stroke-width="2.5" stroke-linecap="round" stroke-linejoin="round"/>
<path fill-rule="evenodd" clip-rule="evenodd" d="M21.3242 48.8378V48.1609C21.3297 46.2349 22.8897 44.6749 24.8157 44.6694H30.338C32.264 44.6749 33.8239 46.2349 33.8294 48.1609V48.8378C33.8294 49.2983 33.4562 49.6715 32.9957 49.6715H22.1579C21.6975 49.6715 21.3242 49.2983 21.3242 48.8378Z" stroke="#192024" stroke-width="2.5" stroke-linecap="round" stroke-linejoin="round"/>
<path fill-rule="evenodd" clip-rule="evenodd" d="M24.3672 38.0666C23.9629 36.6181 24.5783 35.0782 25.8694 34.3072C27.1605 33.5361 28.808 33.7247 29.8916 34.7675C30.9751 35.8103 31.2266 37.4494 30.5056 38.7691C29.7846 40.0888 28.2694 40.7626 26.8065 40.4142C25.6271 40.1333 24.693 39.2344 24.3672 38.0666Z" stroke="#192024" stroke-width="2.5" stroke-linecap="round" stroke-linejoin="round"/>
<circle cx="39.6655" cy="27.9961" r="6.66944" stroke="#192024" stroke-width="2.5" stroke-linecap="round" stroke-linejoin="round"/>
<path d="M41.909 26.6753L39.1079 29.4748L37.4238 27.7958" stroke="#192024" stroke-width="2.5" stroke-linecap="round" stroke-linejoin="round"/>
</svg>
