<svg width="76" height="76" viewBox="0 0 76 76" fill="none" xmlns="http://www.w3.org/2000/svg">
<circle cx="38" cy="38" r="38" fill="#ECEAF9"/>
<path d="M37.997 41.3715L40.922 42.9081C41.492 43.2081 42.157 42.7231 42.0487 42.0898L41.4903 38.8331L43.857 36.5282C44.3187 36.0798 44.0637 35.2965 43.427 35.2048L40.157 34.7298L38.6953 31.7665C38.4103 31.1898 37.587 31.1898 37.3037 31.7665L35.842 34.7315L32.572 35.2065C31.9353 35.2998 31.6803 36.0815 32.142 36.5298L34.5087 38.8348L33.9487 42.0915C33.8403 42.7248 34.5053 43.2081 35.0753 42.9098L38.0003 41.3732" stroke="#192024" stroke-width="2.5" stroke-linecap="round" stroke-linejoin="round"/>
<path fill-rule="evenodd" clip-rule="evenodd" d="M20.2083 42.5543C21.365 41.5327 22.7417 40.9927 24.1867 40.9927C25.615 40.9927 26.9783 41.521 28.1283 42.521C28.6733 42.9943 28.9867 43.6793 28.99 44.3993C28.9933 45.121 28.685 45.8077 28.145 46.2843C26.9883 47.306 25.6133 47.846 24.1683 47.846C22.74 47.846 21.3767 47.3177 20.225 46.3177C19.68 45.8443 19.3667 45.1593 19.3633 44.4393C19.36 43.7177 19.6683 43.031 20.2083 42.5543ZM26.4916 44.4093C25.7883 43.7977 24.9866 43.4927 24.1866 43.4927C23.3783 43.4927 22.57 43.8043 21.8633 44.4277C22.5666 45.0393 23.3683 45.3443 24.1683 45.3443C24.9766 45.3443 25.785 45.0327 26.4916 44.4093Z" fill="#192024"/>
<path fill-rule="evenodd" clip-rule="evenodd" d="M19.6062 30.3538C20.0745 29.8988 20.7012 29.6455 21.3495 29.6455C21.4162 29.6455 21.4829 29.6472 21.5495 29.6538C24.7129 29.9055 26.9512 32.2055 27.1195 35.3755C27.1562 36.0955 26.8829 36.7955 26.3662 37.2988C25.8979 37.7538 25.2712 38.0072 24.6229 38.0072C24.5562 38.0072 24.4895 38.0038 24.4229 37.9988C21.2595 37.7455 19.0212 35.4472 18.8529 32.2772C18.8162 31.5572 19.0895 30.8572 19.6062 30.3538ZM21.3496 32.1455C23.2429 32.2972 24.5212 33.6105 24.6229 35.5072C22.7296 35.3555 21.4512 34.0422 21.3496 32.1455Z" fill="#192024"/>
<path fill-rule="evenodd" clip-rule="evenodd" d="M26.6327 21.0384C27.1077 20.5017 27.791 20.1934 28.5077 20.1934H28.5177C29.2377 20.1967 29.9227 20.51 30.396 21.0567C32.5093 23.49 32.496 26.75 30.3627 29.1667C29.8877 29.7034 29.2043 30.0117 28.4877 30.0117H28.4777C27.756 30.0084 27.0727 29.695 26.5993 29.15C24.486 26.7167 24.4993 23.4567 26.6327 21.0384ZM28.5074 22.6934C29.7857 24.1667 29.7774 26.0484 28.4874 27.5117C27.2091 26.0384 27.2157 24.1567 28.5074 22.6934Z" fill="#192024"/>
<path fill-rule="evenodd" clip-rule="evenodd" d="M41.1447 48.2888C41.6163 47.8138 42.2547 47.5488 42.9197 47.5488C42.9713 47.5488 43.023 47.5505 43.0747 47.5538C46.218 47.7488 48.478 49.9905 48.6997 53.1305C48.7513 53.8488 48.4897 54.5555 47.9813 55.0672C47.5097 55.5422 46.8713 55.8072 46.2063 55.8072C46.1547 55.8072 46.103 55.8055 46.0513 55.8022C42.908 55.6072 40.648 53.3655 40.4263 50.2255C40.3747 49.5072 40.6363 48.8005 41.1447 48.2888ZM42.9198 50.0488C44.7898 50.1655 46.0731 51.4388 46.2048 53.3072C44.3348 53.1905 43.0514 51.9172 42.9198 50.0488Z" fill="#192024"/>
<path fill-rule="evenodd" clip-rule="evenodd" d="M47.8695 42.521C49.0212 41.521 50.3845 40.9927 51.8129 40.9927C53.2579 40.9927 54.6329 41.5327 55.7895 42.5543C56.3295 43.031 56.6379 43.7193 56.6345 44.4393C56.6312 45.161 56.3179 45.846 55.7729 46.3177C54.6212 47.3177 53.2579 47.846 51.8295 47.846C50.3845 47.846 49.0095 47.306 47.8529 46.2843C47.3129 45.8077 47.0045 45.1193 47.0079 44.3993C47.0112 43.6777 47.3245 42.9927 47.8695 42.521ZM54.1362 44.4277C53.4295 43.8043 52.6212 43.4927 51.8128 43.4927C51.0128 43.4927 50.2112 43.7977 49.5078 44.4093C50.2145 45.0327 51.0228 45.3443 51.8312 45.3443C52.6312 45.3443 53.4328 45.0377 54.1362 44.4277Z" fill="#192024"/>
<path fill-rule="evenodd" clip-rule="evenodd" d="M54.4485 29.6538C54.5152 29.6488 54.5819 29.6455 54.6485 29.6455C55.2969 29.6455 55.9235 29.8972 56.3919 30.3538C56.9085 30.8555 57.1835 31.5572 57.1452 32.2772C56.9769 35.4472 54.7385 37.7455 51.5752 37.9988C51.5085 38.0038 51.4419 38.0072 51.3752 38.0072C50.7269 38.0072 50.1002 37.7555 49.6319 37.2988C49.1152 36.7972 48.8402 36.0955 48.8785 35.3755C49.0469 32.2055 51.2852 29.9072 54.4485 29.6538ZM54.6485 32.1455C54.5485 34.0422 53.2685 35.3555 51.3751 35.5072C51.4751 33.6105 52.7551 32.2972 54.6485 32.1455Z" fill="#192024"/>
<path fill-rule="evenodd" clip-rule="evenodd" d="M47.4816 20.1934H47.4916C48.2082 20.1934 48.8916 20.5017 49.3666 21.0384C51.4999 23.455 51.5132 26.7134 49.3999 29.1484C48.9266 29.6934 48.2416 30.0067 47.5216 30.01H47.5116C46.7932 30.01 46.1116 29.7034 45.6366 29.165C43.5032 26.7484 43.4899 23.49 45.6032 21.055C46.0766 20.51 46.7616 20.1967 47.4816 20.1934ZM47.4911 22.6934C48.7811 24.155 48.7894 26.0384 47.5111 27.51C46.2211 26.0484 46.2127 24.1667 47.4911 22.6934Z" fill="#192024"/>
<path fill-rule="evenodd" clip-rule="evenodd" d="M32.926 47.5543C32.9776 47.551 33.0293 47.5493 33.081 47.5493C33.746 47.5493 34.386 47.8143 34.856 48.2893C35.3626 48.801 35.6243 49.5076 35.5743 50.226C35.351 53.366 33.091 55.6076 29.9493 55.8026C29.8976 55.806 29.846 55.8076 29.7943 55.8076C29.1293 55.8076 28.4893 55.5426 28.0193 55.0676C27.5126 54.556 27.251 53.8493 27.301 53.131C27.5243 49.991 29.7843 47.7493 32.926 47.5543ZM33.0806 50.0493C32.9489 51.9176 31.6656 53.191 29.7956 53.3077C29.9272 51.4376 31.2106 50.166 33.0806 50.0493Z" fill="#192024"/>
</svg>
