<svg width="306" height="100" viewBox="0 0 306 100" fill="none" xmlns="http://www.w3.org/2000/svg">
<path d="M182.234 5.72453V0H179.023C177.836 0 176.65 0.48868 175.812 1.32642C174.974 2.16415 174.485 3.35094 174.485 4.53774V10.1925H168.831C167.644 10.1925 166.457 10.6811 165.619 11.5189C164.782 12.3566 164.293 13.5434 164.293 14.7302V17.9415H170.018C176.719 18.0113 182.234 12.4962 182.234 5.72453Z" fill="#EEFCF2"/>
<path d="M17.9415 5.72453V0H14.7302C13.5434 0 12.3566 0.48868 11.5189 1.32642C10.6811 2.16415 10.1925 3.35094 10.1925 4.53774V10.1925H4.53774C3.35094 10.1925 2.16417 10.6811 1.32643 11.5189C0.488696 12.3566 0 13.5434 0 14.7302V17.9415H5.72454C12.4264 18.0113 17.9415 12.4962 17.9415 5.72453Z" fill="#EEFCF2"/>
<path d="M264.418 5.72453V0H261.207C260.02 0 258.833 0.48868 257.995 1.32642C257.158 2.16415 256.669 3.35094 256.669 4.53774V10.1925H251.014C249.828 10.1925 248.641 10.6811 247.803 11.5189C246.965 12.3566 246.477 13.5434 246.477 14.7302V17.9415H252.201C258.903 18.0113 264.418 12.4962 264.418 5.72453Z" fill="#EEFCF2"/>
<path d="M100.125 5.72453V0H96.9138C95.727 0 94.5402 0.48868 93.7025 1.32642C92.8647 2.16415 92.3761 3.35094 92.3761 4.53774V10.1925H86.7213C85.5345 10.1925 84.3478 10.6811 83.51 11.5189C82.6723 12.3566 82.1836 13.5434 82.1836 14.7302V17.9415H87.9081C94.61 18.0113 100.125 12.4962 100.125 5.72453Z" fill="#EEFCF2"/>
<path d="M223.328 5.72453V0H220.117C218.93 0 217.743 0.48868 216.906 1.32642C216.068 2.16415 215.579 3.35094 215.579 4.53774V10.1925H209.924C208.738 10.1925 207.551 10.6811 206.713 11.5189C205.875 12.3566 205.387 13.5434 205.387 14.7302V17.9415H211.111C217.813 18.0113 223.328 12.4962 223.328 5.72453Z" fill="#EEFCF2"/>
<path d="M59.0314 5.72453V0H55.82C54.6332 0 53.4464 0.48868 52.6087 1.32642C51.771 2.16415 51.2823 3.35094 51.2823 4.53774V10.1925H45.6276C44.4408 10.1925 43.254 10.6811 42.4162 11.5189C41.5785 12.3566 41.0898 13.5434 41.0898 14.7302V17.9415H46.8144C53.5163 18.0113 59.0314 12.4962 59.0314 5.72453Z" fill="#EEFCF2"/>
<path d="M305.438 5.72453V0H302.226C301.039 0 299.853 0.48868 299.015 1.32642C298.177 2.16415 297.689 3.35094 297.689 4.53774V10.1925H292.034C290.847 10.1925 289.66 10.6811 288.823 11.5189C287.985 12.3566 287.496 13.5434 287.496 14.7302V17.9415H293.221C299.922 18.0113 305.438 12.4962 305.438 5.72453Z" fill="#EEFCF2"/>
<path d="M141.145 5.72453V0H137.933C136.747 0 135.56 0.48868 134.722 1.32642C133.884 2.16415 133.396 3.35094 133.396 4.53774V10.1925H127.741C126.554 10.1925 125.367 10.6811 124.53 11.5189C123.692 12.3566 123.203 13.5434 123.203 14.7302V17.9415H128.928C135.63 18.0113 141.145 12.4962 141.145 5.72453Z" fill="#EEFCF2"/>
<path d="M100.121 87.1816V81.457H96.9099C95.7231 81.457 94.5363 81.9457 93.6986 82.7835C92.8608 83.6212 92.3722 84.808 92.3722 85.9948V91.6495H86.7174C85.5306 91.6495 84.3439 92.1382 83.5061 92.9759C82.6684 93.8136 82.1797 95.0004 82.1797 96.1872V99.3985H87.9042C94.6061 99.5382 100.121 94.0231 100.121 87.1816C100.121 87.2514 100.121 87.1816 100.121 87.1816Z" fill="#EEFCF2"/>
<path d="M264.418 87.1816V81.457H261.207C260.02 81.457 258.833 81.9457 257.995 82.7835C257.158 83.6212 256.669 84.808 256.669 85.9948V91.6495H251.014C249.828 91.6495 248.641 92.1382 247.803 92.9759C246.965 93.8136 246.477 95.0004 246.477 96.1872V99.3985H252.201C258.903 99.5382 264.418 94.0231 264.418 87.1816C264.418 87.2514 264.418 87.1816 264.418 87.1816Z" fill="#EEFCF2"/>
<path d="M182.234 87.1816V81.457H179.023C177.836 81.457 176.65 81.9457 175.812 82.7835C174.974 83.6212 174.485 84.808 174.485 85.9948V91.6495H168.831C167.644 91.6495 166.457 92.1382 165.619 92.9759C164.782 93.8136 164.293 95.0004 164.293 96.1872V99.3985H170.018C176.719 99.5382 182.234 94.0231 182.234 87.1816C182.234 87.2514 182.234 87.1816 182.234 87.1816Z" fill="#EEFCF2"/>
<path d="M17.9415 87.1816V81.457H14.7302C13.5434 81.457 12.3566 81.9457 11.5189 82.7835C10.6811 83.6212 10.1925 84.808 10.1925 85.9948V91.6495H4.53774C3.35094 91.6495 2.16417 92.1382 1.32643 92.9759C0.488696 93.8136 0 95.0004 0 96.1872V99.3985H5.72454C12.4264 99.5382 17.9415 94.0231 17.9415 87.1816C17.9415 87.2514 17.9415 87.1816 17.9415 87.1816Z" fill="#EEFCF2"/>
<path d="M141.145 87.1816V81.457H137.933C136.747 81.457 135.56 81.9457 134.722 82.7835C133.884 83.6212 133.396 84.808 133.396 85.9948V91.6495H127.741C126.554 91.6495 125.367 92.1382 124.53 92.9759C123.692 93.8136 123.203 95.0004 123.203 96.1872V99.3985H128.928C135.63 99.5382 141.145 94.0231 141.145 87.1816C141.145 87.2514 141.145 87.1816 141.145 87.1816Z" fill="#EEFCF2"/>
<path d="M305.441 87.1816V81.457H302.23C301.043 81.457 299.857 81.9457 299.019 82.7835C298.181 83.6212 297.692 84.808 297.692 85.9948V91.6495H292.038C290.851 91.6495 289.664 92.1382 288.826 92.9759C287.989 93.8136 287.5 95.0004 287.5 96.1872V99.3985H293.224C299.926 99.5382 305.441 94.0231 305.441 87.1816C305.441 87.2514 305.441 87.1816 305.441 87.1816Z" fill="#EEFCF2"/>
<path d="M223.324 87.1816V81.457H220.113C218.926 81.457 217.739 81.9457 216.902 82.7835C216.064 83.6212 215.575 84.808 215.575 85.9948V91.6495H209.921C208.734 91.6495 207.547 92.1382 206.709 92.9759C205.872 93.8136 205.383 95.0004 205.383 96.1872V99.3985H211.107C217.809 99.5382 223.324 94.0231 223.324 87.1816C223.324 87.2514 223.324 87.1816 223.324 87.1816Z" fill="#EEFCF2"/>
<path d="M59.0314 87.1816V81.457H55.82C54.6332 81.457 53.4464 81.9457 52.6087 82.7835C51.771 83.6212 51.2823 84.808 51.2823 85.9948V91.6495H45.6276C44.4408 91.6495 43.254 92.1382 42.4162 92.9759C41.5785 93.8136 41.0898 95.0004 41.0898 96.1872V99.3985H46.8144C53.5163 99.5382 59.0314 94.0231 59.0314 87.1816C59.0314 87.2514 59.0314 87.1816 59.0314 87.1816Z" fill="#EEFCF2"/>
<path d="M141.145 46.455V40.7305H137.933C136.747 40.7305 135.56 41.2191 134.722 42.0569C133.884 42.8946 133.396 44.0814 133.396 45.2682V50.9229H127.741C126.554 50.9229 125.367 51.4116 124.53 52.2493C123.692 53.0871 123.203 54.2739 123.203 55.4606V58.672H128.928C135.63 58.8116 141.145 53.2965 141.145 46.455Z" fill="#EEFCF2"/>
<path d="M305.438 46.455V40.7305H302.226C301.039 40.7305 299.853 41.2191 299.015 42.0569C298.177 42.8946 297.689 44.0814 297.689 45.2682V50.9229H292.034C290.847 50.9229 289.66 51.4116 288.823 52.2493C287.985 53.0871 287.496 54.2739 287.496 55.4606V58.672H293.221C299.922 58.8116 305.438 53.2965 305.438 46.455Z" fill="#EEFCF2"/>
<path d="M223.328 46.455V40.7305H220.117C218.93 40.7305 217.743 41.2191 216.906 42.0569C216.068 42.8946 215.579 44.0814 215.579 45.2682V50.9229H209.924C208.738 50.9229 207.551 51.4116 206.713 52.2493C205.875 53.0871 205.387 54.2739 205.387 55.4606V58.672H211.111C217.813 58.8116 223.328 53.2965 223.328 46.455Z" fill="#EEFCF2"/>
<path d="M59.0314 46.455V40.7305H55.82C54.6332 40.7305 53.4464 41.2191 52.6087 42.0569C51.771 42.8946 51.2823 44.0814 51.2823 45.2682V50.9229H45.6276C44.4408 50.9229 43.254 51.4116 42.4162 52.2493C41.5785 53.0871 41.0898 54.2739 41.0898 55.4606V58.672H46.8144C53.5163 58.8116 59.0314 53.2965 59.0314 46.455Z" fill="#EEFCF2"/>
<path d="M182.234 46.455V40.7305H179.023C177.836 40.7305 176.65 41.2191 175.812 42.0569C174.974 42.8946 174.485 44.0814 174.485 45.2682V50.9229H168.831C167.644 50.9229 166.457 51.4116 165.619 52.2493C164.782 53.0871 164.293 54.2739 164.293 55.4606V58.672H170.018C176.719 58.8116 182.234 53.2965 182.234 46.455Z" fill="#EEFCF2"/>
<path d="M17.9415 46.455V40.7305H14.7302C13.5434 40.7305 12.3566 41.2191 11.5189 42.0569C10.6811 42.8946 10.1925 44.0814 10.1925 45.2682V50.9229H4.53774C3.35094 50.9229 2.16417 51.4116 1.32643 52.2493C0.488696 53.0871 0 54.2739 0 55.4606V58.672H5.72454C12.4264 58.8116 17.9415 53.2965 17.9415 46.455Z" fill="#EEFCF2"/>
<path d="M264.418 46.455V40.7305H261.207C260.02 40.7305 258.833 41.2191 257.995 42.0569C257.158 42.8946 256.669 44.0814 256.669 45.2682V50.9229H251.014C249.828 50.9229 248.641 51.4116 247.803 52.2493C246.965 53.0871 246.477 54.2739 246.477 55.4606V58.672H252.201C258.903 58.8116 264.418 53.2965 264.418 46.455Z" fill="#EEFCF2"/>
<path d="M100.125 46.455V40.7305H96.9138C95.727 40.7305 94.5402 41.2191 93.7025 42.0569C92.8647 42.8946 92.3761 44.0814 92.3761 45.2682V50.9229H86.7213C85.5345 50.9229 84.3478 51.4116 83.51 52.2493C82.6723 53.0871 82.1836 54.2739 82.1836 55.4606V58.672H87.9081C94.61 58.8116 100.125 53.2965 100.125 46.455Z" fill="#EEFCF2"/>
</svg>
