<svg width="142" height="100" viewBox="0 0 142 100" fill="none" xmlns="http://www.w3.org/2000/svg">
<path d="M17.9415 5.72453V0H14.7302C13.5434 0 12.3566 0.48868 11.5189 1.32642C10.6811 2.16415 10.1925 3.35094 10.1925 4.53774V10.1925H4.53774C3.35094 10.1925 2.16417 10.6811 1.32643 11.5189C0.488696 12.3566 0 13.5434 0 14.7302V17.9415H5.72454C12.4264 18.0113 17.9415 12.4962 17.9415 5.72453Z" fill="white"/>
<path d="M100.125 5.72453V0H96.9138C95.727 0 94.5402 0.48868 93.7025 1.32642C92.8647 2.16415 92.3761 3.35094 92.3761 4.53774V10.1925H86.7213C85.5345 10.1925 84.3478 10.6811 83.51 11.5189C82.6723 12.3566 82.1836 13.5434 82.1836 14.7302V17.9415H87.9081C94.61 18.0113 100.125 12.4962 100.125 5.72453Z" fill="white"/>
<path d="M59.0314 5.72453V0H55.82C54.6332 0 53.4464 0.48868 52.6087 1.32642C51.771 2.16415 51.2823 3.35094 51.2823 4.53774V10.1925H45.6276C44.4408 10.1925 43.254 10.6811 42.4162 11.5189C41.5785 12.3566 41.0898 13.5434 41.0898 14.7302V17.9415H46.8144C53.5163 18.0113 59.0314 12.4962 59.0314 5.72453Z" fill="white"/>
<path d="M141.145 5.72453V0H137.933C136.747 0 135.56 0.48868 134.722 1.32642C133.884 2.16415 133.396 3.35094 133.396 4.53774V10.1925H127.741C126.554 10.1925 125.367 10.6811 124.53 11.5189C123.692 12.3566 123.203 13.5434 123.203 14.7302V17.9415H128.928C135.63 18.0113 141.145 12.4962 141.145 5.72453Z" fill="white"/>
<path d="M100.121 87.1816V81.457H96.9099C95.7231 81.457 94.5363 81.9457 93.6986 82.7835C92.8608 83.6212 92.3722 84.808 92.3722 85.9948V91.6495H86.7174C85.5306 91.6495 84.3439 92.1382 83.5061 92.9759C82.6684 93.8136 82.1797 95.0004 82.1797 96.1872V99.3985H87.9042C94.6061 99.5382 100.121 94.0231 100.121 87.1816C100.121 87.2514 100.121 87.1816 100.121 87.1816Z" fill="white"/>
<path d="M17.9415 87.1816V81.457H14.7302C13.5434 81.457 12.3566 81.9457 11.5189 82.7835C10.6811 83.6212 10.1925 84.808 10.1925 85.9948V91.6495H4.53774C3.35094 91.6495 2.16417 92.1382 1.32643 92.9759C0.488696 93.8136 0 95.0004 0 96.1872V99.3985H5.72454C12.4264 99.5382 17.9415 94.0231 17.9415 87.1816C17.9415 87.2514 17.9415 87.1816 17.9415 87.1816Z" fill="white"/>
<path d="M141.145 87.1816V81.457H137.933C136.747 81.457 135.56 81.9457 134.722 82.7835C133.884 83.6212 133.396 84.808 133.396 85.9948V91.6495H127.741C126.554 91.6495 125.367 92.1382 124.53 92.9759C123.692 93.8136 123.203 95.0004 123.203 96.1872V99.3985H128.928C135.63 99.5382 141.145 94.0231 141.145 87.1816C141.145 87.2514 141.145 87.1816 141.145 87.1816Z" fill="white"/>
<path d="M59.0314 87.1816V81.457H55.82C54.6332 81.457 53.4464 81.9457 52.6087 82.7835C51.771 83.6212 51.2823 84.808 51.2823 85.9948V91.6495H45.6276C44.4408 91.6495 43.254 92.1382 42.4162 92.9759C41.5785 93.8136 41.0898 95.0004 41.0898 96.1872V99.3985H46.8144C53.5163 99.5382 59.0314 94.0231 59.0314 87.1816C59.0314 87.2514 59.0314 87.1816 59.0314 87.1816Z" fill="white"/>
<path d="M141.145 46.455V40.7305H137.933C136.747 40.7305 135.56 41.2191 134.722 42.0569C133.884 42.8946 133.396 44.0814 133.396 45.2682V50.9229H127.741C126.554 50.9229 125.367 51.4116 124.53 52.2493C123.692 53.0871 123.203 54.2739 123.203 55.4606V58.672H128.928C135.63 58.8116 141.145 53.2965 141.145 46.455Z" fill="white"/>
<path d="M59.0314 46.455V40.7305H55.82C54.6332 40.7305 53.4464 41.2191 52.6087 42.0569C51.771 42.8946 51.2823 44.0814 51.2823 45.2682V50.9229H45.6276C44.4408 50.9229 43.254 51.4116 42.4162 52.2493C41.5785 53.0871 41.0898 54.2739 41.0898 55.4606V58.672H46.8144C53.5163 58.8116 59.0314 53.2965 59.0314 46.455Z" fill="white"/>
<path d="M17.9415 46.455V40.7305H14.7302C13.5434 40.7305 12.3566 41.2191 11.5189 42.0569C10.6811 42.8946 10.1925 44.0814 10.1925 45.2682V50.9229H4.53774C3.35094 50.9229 2.16417 51.4116 1.32643 52.2493C0.488696 53.0871 0 54.2739 0 55.4606V58.672H5.72454C12.4264 58.8116 17.9415 53.2965 17.9415 46.455Z" fill="white"/>
<path d="M100.125 46.455V40.7305H96.9138C95.727 40.7305 94.5402 41.2191 93.7025 42.0569C92.8647 42.8946 92.3761 44.0814 92.3761 45.2682V50.9229H86.7213C85.5345 50.9229 84.3478 51.4116 83.51 52.2493C82.6723 53.0871 82.1836 54.2739 82.1836 55.4606V58.672H87.9081C94.61 58.8116 100.125 53.2965 100.125 46.455Z" fill="white"/>
</svg>
