<svg width="40" height="24" viewBox="0 0 40 24" fill="none" xmlns="http://www.w3.org/2000/svg">
<rect opacity="0.1" width="40" height="24" rx="5" fill="white"/>
<path d="M11.8283 18H16.0808C18.0923 18 19.3208 16.7715 19.3208 15.3C19.3208 14.382 18.8753 13.8285 18.4433 13.464C18.1868 13.2615 17.8898 13.0995 17.5658 13.005C17.7953 12.9105 18.0113 12.762 18.2003 12.5865C18.5243 12.276 18.8483 11.8035 18.8483 11.0475C18.8483 9.6975 17.7008 8.55 15.8108 8.55H11.8283V18ZM13.8533 16.245V13.95H15.9458C16.7558 13.95 17.2283 14.409 17.2283 15.0975C17.2283 15.786 16.7558 16.245 15.9458 16.245H13.8533ZM13.8533 12.195V10.305H15.6758C16.3643 10.305 16.7558 10.71 16.7558 11.25C16.7558 11.79 16.3643 12.195 15.6758 12.195H13.8533ZM23.3829 14.0175L24.5034 10.9125H24.5574L25.6779 14.0175H23.3829ZM19.7379 18H21.8979L22.7079 15.84H26.3529L27.1629 18H29.3229L25.6779 8.55H23.3829L19.7379 18Z" fill="white"/>
</svg>
