<svg width="40" height="24" viewBox="0 0 40 24" fill="none" xmlns="http://www.w3.org/2000/svg">
<rect opacity="0.1" width="40" height="24" rx="5" fill="white"/>
<path d="M9.09928 17H13.3518C15.3768 17 16.5918 15.785 16.5918 14.3C16.5918 12.4775 14.8368 12.005 14.8368 12.005C14.8368 12.005 16.1193 11.5325 16.1193 10.0475C16.1193 8.6975 14.9718 7.55 13.0818 7.55H9.09928V17ZM11.1243 15.245V12.95H13.2168C14.0268 12.95 14.4993 13.4225 14.4993 14.0975C14.4993 14.7725 14.0268 15.245 13.2168 15.245H11.1243ZM11.1243 11.195V9.305H12.9468C13.6218 9.305 14.0268 9.71 14.0268 10.25C14.0268 10.79 13.6218 11.195 12.9468 11.195H11.1243ZM21.1201 17.2025C23.3476 17.2025 24.6976 15.8525 24.6976 14.3C24.6976 10.9925 19.9726 11.735 19.9726 10.115C19.9726 9.575 20.3776 9.17 21.3901 9.17C22.4701 9.17 23.1451 9.98 23.1451 9.98L24.4951 8.63C24.4951 8.63 23.4151 7.3475 21.3226 7.3475C19.1626 7.3475 17.8801 8.63 17.8801 10.115C17.8801 13.4225 22.6051 12.68 22.6051 14.3C22.6051 14.9075 22.1326 15.38 21.0526 15.38C19.6351 15.38 18.8251 14.3675 18.8251 14.3675L17.4751 15.7175C17.4751 15.7175 18.6901 17.2025 21.1201 17.2025ZM29.0846 17.135C30.9746 17.135 31.8521 15.785 31.8521 15.785L30.7046 14.6375C30.7046 14.6375 30.0971 15.4475 29.0846 15.4475C28.1396 15.4475 27.3971 14.705 27.3971 13.6925C27.3971 12.68 28.1396 11.9375 29.0846 11.9375C30.0971 11.9375 30.7046 12.7475 30.7046 12.7475L31.8521 11.6C31.8521 11.6 30.9746 10.25 29.0846 10.25C27.1271 10.25 25.5746 11.8025 25.5746 13.6925C25.5746 15.5825 27.1271 17.135 29.0846 17.135Z" fill="white"/>
</svg>
