<svg width="304" height="127" viewBox="0 0 304 127" fill="none" xmlns="http://www.w3.org/2000/svg">
<g clip-path="url(#clip0_5760_74627)">
<path d="M14.6173 94.1691C7.92886 94.1691 3.50586 89.8479 3.50586 84.0513V70.9297H10.1404V83.6824C10.1404 86.3172 12.1361 88.1089 14.5633 88.1089C16.9906 88.1089 18.9863 86.3172 18.9863 83.6824V70.9297H25.6208V84.0513C25.7287 89.7952 21.3597 94.1691 14.6173 94.1691Z" fill="white"/>
<path d="M49.2998 32.4079H55.7185V35.6751H55.9343C55.9343 35.6751 57.8222 31.9336 62.353 31.9336C67.3694 31.9336 69.2572 35.8859 69.2572 35.8859H69.473C69.473 35.8859 72.116 31.9336 77.0784 31.9336C81.6092 31.9336 85.1692 35.4116 85.1692 40.9975V55.173H78.7505V42.1041C78.7505 39.522 77.3481 37.783 74.9208 37.783C72.2778 37.783 70.3899 39.4693 70.3899 42.2622V55.173H63.9712V42.1041C63.9712 39.522 62.5688 37.783 60.1415 37.783C57.4985 37.783 55.6107 39.4693 55.6107 42.2622V55.173H49.2998V32.4079Z" fill="white"/>
<path d="M89.8623 43.7904C89.8623 36.8344 94.8786 31.9336 102.214 31.9336C109.604 31.9336 114.566 36.8344 114.566 43.7904C114.566 50.7465 109.55 55.6473 102.214 55.6473C94.8247 55.6473 89.8623 50.7465 89.8623 43.7904ZM108.202 43.7377C108.202 40.2597 105.612 37.7303 102.214 37.7303C98.8162 37.7303 96.2271 40.3124 96.2271 43.7904C96.2271 47.2684 98.8162 49.8506 102.214 49.8506C105.666 49.7979 108.202 47.2158 108.202 43.7377Z" fill="white"/>
<path d="M153.241 43.7904C153.241 36.8344 158.258 31.9336 165.593 31.9336C172.983 31.9336 177.945 36.8344 177.945 43.7904C177.945 50.7465 172.929 55.6473 165.593 55.6473C158.204 55.6473 153.241 50.7465 153.241 43.7904ZM171.58 43.7377C171.58 40.2597 168.991 37.7303 165.593 37.7303C162.195 37.7303 159.606 40.3124 159.606 43.7904C159.606 47.2684 162.195 49.8506 165.593 49.8506C169.045 49.7979 171.58 47.2158 171.58 43.7377Z" fill="white"/>
<path d="M20.3887 43.7904C20.3887 36.8344 25.405 31.9336 32.7407 31.9336C40.1303 31.9336 45.0927 36.8344 45.0927 43.7904C45.0927 50.7465 40.0764 55.6473 32.7407 55.6473C25.405 55.6473 20.3887 50.7465 20.3887 43.7904ZM38.7819 43.7377C38.7819 40.2597 36.1928 37.7303 32.7946 37.7303C29.3965 37.7303 26.8074 40.3124 26.8074 43.7904C26.8074 47.2684 29.3965 49.8506 32.7946 49.8506C36.2467 49.7979 38.7819 47.2158 38.7819 43.7377Z" fill="white"/>
<path d="M119.367 32.4079H125.786V35.6751H126.002C126.002 35.6751 128.375 31.9336 132.906 31.9336H133.391V38.6788C133.391 38.6788 132.69 38.468 131.234 38.468C128.159 38.468 125.786 40.1016 125.786 43.8431V55.2257H119.367V32.4079V32.4079Z" fill="white"/>
<path d="M137.437 32.4079H143.855V35.6751H144.071C144.071 35.6751 146.444 31.9336 150.975 31.9336H151.461V38.6788C151.461 38.6788 150.759 38.468 149.303 38.468C146.229 38.468 143.855 40.1016 143.855 43.8431V55.2257H137.437V32.4079V32.4079Z" fill="white"/>
<path d="M179.077 32.4102H185.981L190.243 45.9006H190.458L194.989 32.4102H200.221L204.752 45.9006H204.968L209.229 32.4102H216.133L207.934 55.1753H202.055L197.632 41.8956H197.416L192.993 55.1753H187.114L179.077 32.4102Z" fill="white"/>
<path d="M31.5547 70.9313H37.9734V74.1985H38.1892C38.1892 74.1985 40.5625 70.457 45.0934 70.457C49.84 70.457 53.6697 73.6716 53.6697 79.4682V93.6965H47.2509V80.8911C47.2509 78.0981 45.5788 76.3064 42.9897 76.3064C40.131 76.3064 37.9734 78.2035 37.9734 81.2599V93.6965H31.5547V70.9313Z" fill="white"/>
<path d="M62.1373 68.1939C64.2948 68.1939 66.0209 66.4549 66.0209 64.4524C66.0209 62.4499 64.2948 60.7109 62.1912 60.7109C60.0337 60.7109 58.3076 62.4499 58.3076 64.4524C58.3076 66.4022 60.0337 68.1939 62.1373 68.1939ZM58.9549 93.6993H65.3736V70.9342H58.9549V93.6993Z" fill="white"/>
<path d="M68.4482 70.9297H75.3524L80.7463 86.2645H80.9621L86.356 70.9297H93.2602L84.4681 93.6948H77.3482L68.4482 70.9297Z" fill="white"/>
<path d="M93.6924 82.3139C93.6924 75.3579 98.439 70.457 105.667 70.457C112.895 70.457 117.479 75.5687 117.479 81.8396C117.479 83.4732 117.264 84.7906 117.264 84.7906H100.435C100.812 86.9512 103.186 88.5848 106.746 88.5848C110.036 88.5848 112.14 87.2674 113.488 86.0027L116.832 90.5873C114.89 92.3263 111.492 94.118 106.314 94.118C98.8705 94.1707 93.6924 89.2699 93.6924 82.3139ZM110.845 79.9952C110.575 77.7292 108.58 75.8848 105.613 75.8848C102.646 75.8848 100.597 77.7819 100.435 79.9952H110.845Z" fill="white"/>
<path d="M122.118 70.9313H128.537V74.1985H128.753C128.753 74.1985 131.126 70.457 135.657 70.457H136.142V77.2023C136.142 77.2023 135.441 76.9915 133.985 76.9915C130.91 76.9915 128.537 78.6251 128.537 82.3666V93.7491H122.118V70.9313V70.9313Z" fill="white"/>
<path d="M137.868 90.2184L141.374 85.8446C141.374 85.8446 144.179 88.5848 147.955 88.5848C150.112 88.5848 150.436 87.689 150.436 86.7931C150.436 84.211 139.055 84.896 139.055 77.413C139.055 73.25 141.86 70.457 147.793 70.457C153.726 70.457 156.747 73.6716 156.747 73.6716L153.457 77.94C153.457 77.94 151.083 75.8848 147.739 75.8848C146.067 75.8848 145.527 76.7807 145.527 77.4657C145.527 80.0479 157.07 79.5736 157.07 87.0039C157.07 91.4305 154.104 94.2234 147.685 94.2234C141.374 94.1707 137.868 90.2184 137.868 90.2184Z" fill="white"/>
<path d="M164.676 68.1939C166.834 68.1939 168.56 66.4549 168.56 64.4524C168.56 62.4499 166.834 60.7109 164.73 60.7109C162.573 60.7109 160.847 62.4499 160.847 64.4524C160.847 66.4022 162.573 68.1939 164.676 68.1939ZM161.494 93.6993H167.913V70.9342H161.494V93.6993Z" fill="white"/>
<path d="M192.292 102.181V96.5424C192.292 96.5424 193.479 97.0167 194.935 97.0167C197.092 97.0167 198.333 95.8573 198.98 94.2237L199.304 93.4333L190.242 70.8789H197.146L202.594 86.003H202.81L208.042 70.8789H214.946L205.561 95.1196C203.619 100.231 200.814 102.866 196.499 102.866C194.18 102.919 192.292 102.181 192.292 102.181Z" fill="white"/>
<path d="M17.2605 48.9036C16.5593 49.0617 14.7253 49.5887 13.7005 49.5887C11.8126 49.5887 10.9496 48.7982 10.9496 46.6904V38.2061H16.3435V32.4094H10.9496V25.875H8.14478C6.41874 25.875 5.01632 27.2451 5.01632 28.9314V32.5675H2.69695C1.2406 32.5675 0 33.7269 0 35.2024V38.2061H4.58481V47.6389C4.58481 52.9613 7.3357 55.6489 12.0823 55.6489C14.3478 55.6489 16.9908 54.9638 18.0156 54.6476L17.2605 48.9036Z" fill="white"/>
<path d="M188.517 87.4232C187.816 87.5813 185.982 88.1082 184.957 88.1082C183.069 88.1082 182.206 87.3178 182.206 85.2099V76.7257H187.6V70.929H182.206V64.3945H179.401C177.675 64.3945 176.273 65.7647 176.273 67.451V71.0871H173.845C172.389 71.0871 171.148 72.2464 171.148 73.7219V76.7257H175.733V86.1584C175.733 91.4808 178.484 94.1684 183.231 94.1684C185.496 94.1684 188.139 93.4833 189.164 93.1672L188.517 87.4232Z" fill="white"/>
<path d="M274.01 0H263.384C259.392 0 255.617 1.52822 252.758 4.26846C249.953 7.00871 248.389 10.7502 248.389 14.6498V30.3008H238.194C234.203 30.3008 230.427 31.829 227.568 34.5693C224.763 37.3095 223.199 41.051 223.199 44.9506V55.3319C262.143 58.283 276.815 34.622 274.01 0ZM256.587 78.6768H265.487C268.832 78.6768 272.014 77.3593 274.387 75.0934C276.761 72.7747 278.055 69.6656 278.055 66.3983V58.0722H291.486C294.83 58.0722 298.013 56.7548 300.386 54.4888C302.759 52.1701 304.054 49.061 304.054 45.7938V37.0988C274.333 34.7801 254.052 46.795 256.587 78.6768Z" fill="white"/>
<path d="M2.69727 116.621C2.69727 113.406 5.28634 110.824 8.63055 110.824C11.9208 110.824 14.5638 113.354 14.5638 116.621C14.5638 119.835 11.9748 122.418 8.63055 122.418C5.34028 122.418 2.69727 119.835 2.69727 116.621ZM12.1905 116.621C12.1905 114.513 10.6263 113.037 8.63055 113.037C6.63481 113.037 5.07058 114.566 5.07058 116.621C5.07058 118.729 6.63481 120.204 8.63055 120.204C10.6263 120.204 12.1905 118.676 12.1905 116.621Z" fill="white"/>
<path d="M18.07 113.247H16.29V111.033H18.07V109.4C18.07 106.976 19.3646 105.711 21.63 105.711C22.7088 105.711 23.41 106.08 23.41 106.08V108.293C23.41 108.293 22.8167 107.924 22.1154 107.924C21.0367 107.924 20.4433 108.504 20.4433 109.663V111.033H23.1403V113.247H20.4433V122.152H18.07V113.247Z" fill="white"/>
<path d="M35.1684 105.973H38.0272L44.6617 122.151H41.9648L40.2926 117.988H32.9569L31.2848 122.151H28.5879L35.1684 105.973ZM39.3217 115.669L36.6248 108.976L33.9278 115.669H39.3217Z" fill="white"/>
<path d="M46.6572 111.035H49.0305V112.669C49.0305 112.669 50.2172 110.824 52.9141 110.824C55.7729 110.824 58.2541 113.248 58.2541 116.621C58.2541 119.994 55.7729 122.418 52.9141 122.418C50.2172 122.418 49.0305 120.573 49.0305 120.573V127.002H46.6572V111.035ZM55.8808 116.621C55.8808 114.513 54.3166 113.037 52.4287 113.037C50.5408 113.037 48.9766 114.566 48.9766 116.621C48.9766 118.729 50.5408 120.204 52.4287 120.204C54.3705 120.204 55.8808 118.676 55.8808 116.621Z" fill="white"/>
<path d="M60.9512 111.035H63.3245V112.669C63.3245 112.669 64.5111 110.824 67.2081 110.824C70.0669 110.824 72.5481 113.248 72.5481 116.621C72.5481 119.994 70.0669 122.418 67.2081 122.418C64.5111 122.418 63.3245 120.573 63.3245 120.573V127.002H60.9512V111.035ZM70.1747 116.621C70.1747 114.513 68.6105 113.037 66.7226 113.037C64.8348 113.037 63.2705 114.566 63.2705 116.621C63.2705 118.729 64.8348 120.204 66.7226 120.204C68.6644 120.204 70.1747 118.676 70.1747 116.621Z" fill="white"/>
<path d="M75.3535 105.973H77.7268V122.151H75.3535V105.973Z" fill="white"/>
<path d="M81.124 107.608C81.124 106.818 81.8252 106.238 82.5264 106.238C83.2276 106.238 83.9289 106.818 83.9289 107.608C83.9289 108.399 83.2276 108.979 82.5264 108.979C81.8252 108.979 81.124 108.399 81.124 107.608ZM81.3937 111.034H83.767V122.153H81.3937V111.034Z" fill="white"/>
<path d="M86.5723 116.621C86.5723 113.406 89.1613 110.824 92.3977 110.824C95.5801 110.824 97.9534 113.143 97.9534 116.252C97.9534 116.937 97.8455 117.411 97.8455 117.411H89.1074C89.3232 118.94 90.7795 120.204 92.6674 120.204C94.6631 120.204 95.9576 118.676 95.9576 118.676L97.3601 120.31C97.3601 120.31 95.7958 122.418 92.5056 122.418C89.1613 122.418 86.5723 119.835 86.5723 116.621ZM95.4722 115.462C95.0946 113.933 94.0698 112.932 92.3977 112.932C90.6177 112.932 89.5389 113.986 89.1074 115.462H95.4722Z" fill="white"/>
<path d="M99.9492 116.617C99.9492 113.245 102.43 110.821 105.289 110.821C107.986 110.821 109.173 112.665 109.173 112.665V105.973H111.546V122.151H109.173V120.517C109.173 120.517 107.986 122.361 105.289 122.361C102.43 122.414 99.9492 119.937 99.9492 116.617ZM109.173 116.617C109.173 114.51 107.609 113.034 105.721 113.034C103.833 113.034 102.269 114.562 102.269 116.617C102.269 118.725 103.833 120.201 105.721 120.201C107.609 120.201 109.173 118.673 109.173 116.617Z" fill="white"/>
<path d="M119.151 119.939L120.931 118.2C120.931 118.2 122.226 120.045 125.085 120.045C127.242 120.045 128.375 118.885 128.375 117.62C128.375 114.037 119.637 116.25 119.637 110.243C119.637 107.819 121.794 105.711 125.3 105.711C128.753 105.711 130.532 107.819 130.532 107.819L128.753 109.558C128.753 109.558 127.566 108.03 125.3 108.03C123.305 108.03 122.226 109.084 122.226 110.243C122.226 113.826 130.964 111.613 130.964 117.62C130.964 120.15 128.699 122.363 125.031 122.363C121.093 122.416 119.151 119.939 119.151 119.939Z" fill="white"/>
<path d="M133.014 116.621C133.014 113.406 135.603 110.824 138.947 110.824C142.129 110.824 143.694 113.037 143.694 113.037L142.021 114.566C142.021 114.566 140.943 113.037 138.947 113.037C136.951 113.037 135.387 114.566 135.387 116.621C135.387 118.729 136.951 120.204 138.947 120.204C140.943 120.204 142.129 118.571 142.129 118.571L143.801 120.099C143.801 120.099 142.129 122.418 138.947 122.418C135.603 122.418 133.014 119.835 133.014 116.621Z" fill="white"/>
<path d="M146.013 107.608C146.013 106.818 146.714 106.238 147.415 106.238C148.116 106.238 148.818 106.818 148.818 107.608C148.818 108.399 148.116 108.979 147.415 108.979C146.714 108.979 146.013 108.399 146.013 107.608ZM146.228 111.034H148.602V122.153H146.228V111.034Z" fill="white"/>
<path d="M151.407 116.621C151.407 113.406 153.996 110.824 157.233 110.824C160.469 110.824 162.788 113.143 162.788 116.252C162.788 116.937 162.68 117.411 162.68 117.411H153.942C154.158 118.94 155.614 120.204 157.502 120.204C159.498 120.204 160.793 118.676 160.793 118.676L162.195 120.31C162.195 120.31 160.631 122.418 157.341 122.418C154.05 122.418 151.407 119.835 151.407 116.621ZM160.307 115.462C159.93 113.933 158.905 112.932 157.233 112.932C155.453 112.932 154.374 113.986 153.942 115.462H160.307Z" fill="white"/>
<path d="M165.484 111.035H167.858V112.669C167.858 112.669 169.044 110.824 171.418 110.824C174.007 110.824 175.895 112.669 175.895 115.672V122.154H173.521V115.672C173.521 114.039 172.443 113.037 170.932 113.037C169.152 113.037 167.858 114.302 167.858 116.147V122.154H165.484V111.035V111.035Z" fill="white"/>
<path d="M178.592 116.621C178.592 113.406 181.181 110.824 184.525 110.824C187.707 110.824 189.272 113.037 189.272 113.037L187.6 114.566C187.6 114.566 186.521 113.037 184.525 113.037C182.529 113.037 180.965 114.566 180.965 116.621C180.965 118.729 182.529 120.204 184.525 120.204C186.521 120.204 187.707 118.571 187.707 118.571L189.38 120.099C189.38 120.099 187.707 122.418 184.525 122.418C181.181 122.418 178.592 119.835 178.592 116.621Z" fill="white"/>
<path d="M190.782 116.621C190.782 113.406 193.371 110.824 196.608 110.824C199.79 110.824 202.163 113.143 202.163 116.252C202.163 116.937 202.055 117.411 202.055 117.411H193.317C193.533 118.94 194.989 120.204 196.877 120.204C198.873 120.204 200.168 118.676 200.168 118.676L201.57 120.31C201.57 120.31 200.006 122.418 196.716 122.418C193.371 122.418 190.782 119.835 190.782 116.621ZM199.628 115.462C199.251 113.933 198.226 112.932 196.554 112.932C194.774 112.932 193.695 113.986 193.263 115.462H199.628Z" fill="white"/>
<path d="M203.781 120.308L205.345 118.78C205.345 118.78 206.532 120.308 208.312 120.308C209.607 120.308 210.308 119.623 210.308 118.938C210.308 117.093 204.267 117.989 204.267 114.09C204.267 112.351 205.831 110.875 208.42 110.875C211.117 110.875 212.465 112.403 212.465 112.403L210.901 113.826C210.901 113.826 209.93 112.877 208.42 112.877C207.233 112.877 206.64 113.457 206.64 114.037C206.64 115.881 212.681 114.985 212.681 118.885C212.681 120.729 211.009 122.363 208.312 122.363C205.292 122.416 203.781 120.308 203.781 120.308Z" fill="white"/>
</g>
<defs>
<clipPath id="clip0_5760_74627">
<rect width="304" height="127" fill="white"/>
</clipPath>
</defs>
</svg>
