<svg width="107" height="60" viewBox="0 0 107 60" fill="none" xmlns="http://www.w3.org/2000/svg">
<g clip-path="url(#clip0_6359_85545)">
<path opacity="0.3" fill-rule="evenodd" clip-rule="evenodd" d="M0 33.9047V43.8094H9.85876H19.7175V33.9047V24H9.85876H0V33.9047ZM21.5578 33.9047V43.8094H31.4166H41.2753V33.9047V24H31.4166H21.5578V33.9047ZM43.1156 33.9047V43.8094H53.1059H63.0961V33.9047V24H53.1059H43.1156V33.9047ZM64.736 33.8395L64.8049 43.679L74.7294 43.7473L84.6539 43.8156V33.9078V24H74.6605H64.6672L64.736 33.8395ZM86.4942 33.9047V43.8094H96.353H106.212V33.9047V24H96.353H86.4942V33.9047ZM13.868 32.3966L16.4215 32.4711L11.1854 36.3107C8.30528 38.4225 5.91236 40.1141 5.86767 40.0698C5.82324 40.0255 6.1311 38.979 6.552 37.744L7.31757 35.4991L5.30191 33.9852L3.28625 32.4711L5.803 32.3971L8.31974 32.3231L9.07874 29.9678L9.83799 27.6126L10.5762 29.9673L11.3147 32.322L13.868 32.3966ZM35.4742 32.6014L37.9121 32.7318L34.8232 34.9345C31.7704 37.1117 31.4318 37.5655 33.2256 37.0742L34.146 36.8224L34.6855 38.4064C34.9823 39.2774 35.1855 40.0292 35.1371 40.0771C35.0888 40.1251 34.267 39.5769 33.3103 38.8591C32.3538 38.141 31.487 37.5538 31.384 37.5538C31.2809 37.5538 30.3858 38.1402 29.3949 38.857C28.404 39.5738 27.5488 40.1603 27.4941 40.1603C27.4394 40.1603 27.7247 39.1083 28.1277 37.8225L28.8607 35.485L26.8689 34.0535L24.8769 32.6223L27.3582 32.5467L29.8392 32.4711L30.6279 30.0656L31.4166 27.6603L32.2266 30.0656L33.0363 32.4711L35.4742 32.6014ZM78.8112 32.3966L81.3629 32.4711L76.1157 36.3021C73.2296 38.4092 70.8356 40.1008 70.7956 40.0612C70.7557 40.0216 71.0675 38.979 71.4884 37.744L72.2539 35.4991L70.2383 33.9852L68.2226 32.4711L70.7473 32.3971L73.2719 32.3228L74.0027 29.9605L74.7336 27.598L75.4966 29.96L76.2595 32.322L78.8112 32.3966ZM100.367 32.3408C101.776 32.3408 102.762 32.4419 102.677 32.5777C102.545 32.7899 93.4035 39.5251 92.6145 39.9916C92.3829 40.1287 92.4005 39.8819 92.6779 39.102C92.8892 38.5083 93.2347 37.4464 93.4455 36.7421L93.8291 35.4615L91.824 33.9662L89.8188 32.4711L92.3616 32.3966L94.9044 32.322L95.621 29.9485L96.3374 27.5751L97.1235 29.9579L97.9096 32.3408H100.367ZM53.9017 30.0635L54.566 32.2105L57.1419 32.3408L59.7178 32.4711L54.5058 36.2805C51.6391 38.3756 49.2628 40.0133 49.2247 39.9197C49.1868 39.8261 49.4529 38.8831 49.8162 37.8241C50.1795 36.765 50.4734 35.7725 50.4695 35.6185C50.4656 35.4644 49.5683 34.6931 48.4759 33.9047L46.4897 32.4711L49.0677 32.3408L51.6457 32.2105L52.3101 30.0635C52.6755 28.8825 53.0336 27.9163 53.1059 27.9163C53.1782 27.9163 53.5362 28.8825 53.9017 30.0635ZM13.4363 38.7981C13.9666 40.3378 14.0633 40.3482 11.5773 38.5969L9.91292 37.4245L11.3318 37.1521C12.3166 36.9631 12.783 36.9629 12.8566 37.1516C12.915 37.3012 13.1758 38.042 13.4363 38.7981ZM56.6495 38.5482C56.899 39.31 57.0607 39.9752 57.0091 40.0266C56.9573 40.0776 56.0992 39.5167 55.1018 38.7801L53.2883 37.4407L54.5773 37.1524C55.2864 36.9936 55.9404 36.9311 56.0312 37.0134C56.1219 37.0956 56.4 37.7863 56.6495 38.5482ZM78.3735 38.8005C78.9066 40.3485 78.9626 40.3539 76.5479 38.6193L74.8829 37.4234L76.285 37.1516C77.2582 36.9629 77.7194 36.9629 77.793 37.1516C77.8514 37.3012 78.1124 38.043 78.3735 38.8005ZM99.8761 38.3811C100.178 39.266 100.385 40.0292 100.336 40.0771C100.288 40.1251 99.4313 39.5493 98.4322 38.7979L96.6159 37.4313L97.9304 37.1266C98.6533 36.959 99.2635 36.8107 99.2864 36.7968C99.3093 36.783 99.5748 37.4959 99.8761 38.3811Z" fill="black"/>
<mask id="mask0_6359_85545" style="mask-type:alpha" maskUnits="userSpaceOnUse" x="0" y="24" width="96" height="20">
<rect y="23.9999" width="95.5324" height="19.82" fill="#D9D9D9"/>
</mask>
<g mask="url(#mask0_6359_85545)">
<path fill-rule="evenodd" clip-rule="evenodd" d="M0 33.6834V43.5881H9.85876H19.7175V33.6834V23.7787H9.85876H0V33.6834ZM21.5578 33.6834V43.5881H31.4166H41.2753V33.6834V23.7787H31.4166H21.5578V33.6834ZM43.1156 33.6834V43.5881H53.1059H63.0961V33.6834V23.7787H53.1059H43.1156V33.6834ZM64.736 33.6183L64.8049 43.4578L74.7294 43.5261L84.6539 43.5944V33.6866V23.7787H74.6605H64.6672L64.736 33.6183ZM86.4942 33.6834V43.5881H96.353H106.212V33.6834V23.7787H96.353H86.4942V33.6834ZM13.868 32.1753L16.4215 32.2499L11.1854 36.0895C8.30528 38.2013 5.91236 39.8929 5.86767 39.8486C5.82324 39.8043 6.1311 38.7578 6.552 37.5228L7.31757 35.2778L5.30191 33.764L3.28625 32.2499L5.803 32.1758L8.31974 32.1018L9.07874 29.7466L9.83799 27.3914L10.5762 29.7461L11.3147 32.1008L13.868 32.1753ZM35.4742 32.3802L37.9121 32.5105L34.8232 34.7133C31.7704 36.8905 31.4318 37.3443 33.2256 36.8529L34.146 36.6011L34.6855 38.1851C34.9823 39.0562 35.1855 39.8079 35.1371 39.8559C35.0888 39.9038 34.267 39.3557 33.3103 38.6379C32.3538 37.9198 31.487 37.3325 31.384 37.3325C31.2809 37.3325 30.3858 37.919 29.3949 38.6358C28.404 39.3526 27.5488 39.939 27.4941 39.939C27.4394 39.939 27.7247 38.887 28.1277 37.6013L28.8607 35.2637L26.8689 33.8323L24.8769 32.401L27.3582 32.3254L29.8392 32.2499L30.6279 29.8443L31.4166 27.439L32.2266 29.8443L33.0363 32.2499L35.4742 32.3802ZM78.8112 32.1753L81.3629 32.2499L76.1157 36.0809C73.2296 38.188 70.8356 39.8796 70.7956 39.84C70.7557 39.8003 71.0675 38.7578 71.4884 37.5228L72.2539 35.2778L70.2383 33.764L68.2226 32.2499L70.7473 32.1758L73.2719 32.1015L74.0027 29.7393L74.7336 27.3768L75.4966 29.7388L76.2595 32.1008L78.8112 32.1753ZM100.367 32.1195C101.776 32.1195 102.762 32.2207 102.677 32.3565C102.545 32.5686 93.4035 39.3038 92.6145 39.7704C92.3829 39.9075 92.4005 39.6606 92.6779 38.8808C92.8892 38.287 93.2347 37.2251 93.4455 36.5209L93.8291 35.2403L91.824 33.7449L89.8188 32.2499L92.3616 32.1753L94.9044 32.1008L95.621 29.7273L96.3374 27.3538L97.1235 29.7367L97.9096 32.1195H100.367ZM53.9017 29.8422L54.566 31.9892L57.1419 32.1195L59.7178 32.2499L54.5058 36.0592C51.6391 38.1544 49.2628 39.792 49.2247 39.6984C49.1868 39.6049 49.4529 38.6618 49.8162 37.6028C50.1795 36.5438 50.4734 35.5512 50.4695 35.3972C50.4656 35.2432 49.5683 34.4719 48.4759 33.6834L46.4897 32.2499L49.0677 32.1195L51.6457 31.9892L52.3101 29.8422C52.6755 28.6612 53.0336 27.695 53.1059 27.695C53.1782 27.695 53.5362 28.6612 53.9017 29.8422ZM13.4363 38.5769C13.9666 40.1165 14.0633 40.1269 11.5773 38.3756L9.91292 37.2032L11.3318 36.9309C12.3166 36.7419 12.783 36.7416 12.8566 36.9303C12.915 37.08 13.1758 37.8207 13.4363 38.5769ZM56.6495 38.3269C56.899 39.0888 57.0607 39.754 57.0091 39.8053C56.9573 39.8564 56.0992 39.2955 55.1018 38.5589L53.2883 37.2194L54.5773 36.9311C55.2864 36.7724 55.9404 36.7098 56.0312 36.7922C56.1219 36.8743 56.4 37.565 56.6495 38.3269ZM78.3735 38.5792C78.9066 40.1272 78.9626 40.1327 76.5479 38.3981L74.8829 37.2022L76.285 36.9303C77.2582 36.7416 77.7194 36.7416 77.793 36.9303C77.8514 37.08 78.1124 37.8218 78.3735 38.5792ZM99.8761 38.1598C100.178 39.0447 100.385 39.8079 100.336 39.8559C100.288 39.9038 99.4313 39.3281 98.4322 38.5766L96.6159 37.21L97.9304 36.9053C98.6533 36.7377 99.2635 36.5894 99.2864 36.5756C99.3093 36.5618 99.5748 37.2747 99.8761 38.1598Z" fill="#00B67A"/>
</g>
<path d="M18.7071 6.23486H25.9076V7.58455H23.0725V15.193H21.5185V7.58455H18.6953L18.7071 6.23486ZM25.5992 8.70731H26.9278V9.96145H26.9515C26.999 9.78228 27.082 9.61507 27.2007 9.44785C27.3193 9.28063 27.4616 9.12535 27.6396 8.99397C27.8056 8.85064 27.9954 8.74314 28.209 8.65953C28.4106 8.57592 28.6242 8.52814 28.8377 8.52814C29.0037 8.52814 29.1224 8.54009 29.1817 8.54009C29.241 8.55203 29.3122 8.56398 29.3715 8.56398V9.93756C29.2766 9.91367 29.1698 9.90172 29.0631 9.88978C28.9563 9.87784 28.8614 9.86589 28.7546 9.86589C28.5174 9.86589 28.292 9.91367 28.0785 10.0092C27.865 10.1048 27.687 10.2481 27.5209 10.4273C27.3667 10.6184 27.2362 10.8453 27.1413 11.12C27.0464 11.3947 26.999 11.7172 26.999 12.0756V15.1572H25.5755L25.5992 8.70731ZM34.4961 15.193V14.2852H34.4723C34.2944 14.6197 34.0334 14.8705 33.6894 15.0736C33.3454 15.2766 32.9895 15.3722 32.6337 15.3722C31.7914 15.3722 31.1746 15.1691 30.795 14.7391C30.4154 14.3211 30.2256 13.6761 30.2256 12.8281V8.70731H31.6491V12.6847C31.6491 13.258 31.7558 13.6641 31.9812 13.8911C32.1948 14.13 32.5032 14.2494 32.8946 14.2494C33.1912 14.2494 33.4403 14.2016 33.642 14.1061C33.8436 14.0105 34.0097 13.8911 34.1283 13.7358C34.2588 13.5805 34.3419 13.3894 34.4012 13.1744C34.4605 12.9594 34.4842 12.7206 34.4842 12.4697V8.70731H35.9077V15.193H34.4961ZM38.3158 13.1147C38.3632 13.5328 38.5175 13.8194 38.7903 13.9986C39.0631 14.1658 39.3953 14.2494 39.7749 14.2494C39.9054 14.2494 40.0596 14.2375 40.2256 14.2136C40.3917 14.1897 40.5578 14.1539 40.7001 14.0941C40.8544 14.0344 40.973 13.9508 41.0679 13.8314C41.1628 13.7119 41.2102 13.5686 41.1984 13.3894C41.1865 13.2103 41.1272 13.055 40.9967 12.9355C40.8662 12.8161 40.712 12.7325 40.5222 12.6489C40.3324 12.5772 40.107 12.5175 39.8579 12.4697C39.6088 12.4219 39.3597 12.3622 39.0987 12.3025C38.8377 12.2428 38.5768 12.1711 38.3277 12.0875C38.0785 12.0039 37.865 11.8964 37.6634 11.7411C37.4736 11.5978 37.3075 11.4186 37.2007 11.1917C37.0821 10.9648 37.0228 10.702 37.0228 10.3675C37.0228 10.0092 37.1058 9.72256 37.2838 9.48368C37.4498 9.2448 37.6752 9.05369 37.9362 8.91036C38.1972 8.76703 38.4937 8.65953 38.814 8.59981C39.1343 8.54009 39.4427 8.5162 39.7274 8.5162C40.0596 8.5162 40.3799 8.55203 40.6764 8.6237C40.973 8.69536 41.2577 8.80286 41.4949 8.97008C41.744 9.12535 41.9457 9.34035 42.0999 9.59118C42.266 9.842 42.3609 10.1526 42.4083 10.5109H40.9255C40.8544 10.1645 40.7001 9.93756 40.4629 9.81812C40.2138 9.69868 39.9409 9.63896 39.6207 9.63896C39.5258 9.63896 39.3953 9.6509 39.2648 9.66284C39.1224 9.68673 39.0038 9.71062 38.8733 9.7584C38.7547 9.80617 38.6479 9.87784 38.5649 9.96145C38.4819 10.0451 38.4344 10.1645 38.4344 10.3078C38.4344 10.487 38.4937 10.6184 38.6124 10.7259C38.731 10.8334 38.8852 10.917 39.0869 11.0006C39.2767 11.0723 39.502 11.132 39.7511 11.1798C40.0003 11.2275 40.2612 11.2873 40.5222 11.347C40.7832 11.4067 41.0323 11.4784 41.2814 11.562C41.5305 11.6456 41.7559 11.7531 41.9457 11.9084C42.1355 12.0517 42.3016 12.2308 42.4202 12.4458C42.5388 12.6608 42.5981 12.9355 42.5981 13.2461C42.5981 13.6283 42.5151 13.9508 42.3372 14.2255C42.1592 14.4883 41.9338 14.7152 41.661 14.8825C41.3882 15.0497 41.0679 15.1691 40.7357 15.2527C40.3917 15.3244 40.0596 15.3722 39.7274 15.3722C39.3241 15.3722 38.9445 15.3244 38.6005 15.2288C38.2565 15.1333 37.9481 14.9899 37.6989 14.8108C37.4498 14.6197 37.2482 14.3927 37.1058 14.1061C36.9635 13.8314 36.8804 13.4969 36.8686 13.1028H38.3039V13.1147H38.3158ZM43.0015 8.70731H44.081V6.74846H45.5044V8.69536H46.7856V9.7584H45.5044V13.2222C45.5044 13.3775 45.5163 13.4969 45.5282 13.6164C45.54 13.7239 45.5756 13.8194 45.6112 13.8911C45.6587 13.9627 45.7298 14.0225 45.8129 14.0583C45.9078 14.0941 46.0264 14.118 46.1925 14.118C46.2874 14.118 46.3941 14.118 46.489 14.1061C46.5839 14.0941 46.6907 14.0822 46.7856 14.0583V15.1691C46.6314 15.193 46.4772 15.2049 46.323 15.2169C46.1687 15.2408 46.0264 15.2408 45.8603 15.2408C45.4807 15.2408 45.1842 15.2049 44.9588 15.1333C44.7334 15.0616 44.5555 14.9541 44.425 14.8227C44.2945 14.6794 44.2114 14.5122 44.164 14.3091C44.1165 14.1061 44.0928 13.8552 44.081 13.5925V9.77034H43.0015V8.68342V8.70731ZM47.782 8.70731H49.1225V9.59118H49.1462C49.3479 9.20896 49.6207 8.94619 49.9766 8.77897C50.3325 8.61175 50.7121 8.52814 51.1391 8.52814C51.6492 8.52814 52.0881 8.61176 52.4677 8.80286C52.8473 8.98203 53.1557 9.22091 53.4049 9.5434C53.654 9.85395 53.8438 10.2242 53.9624 10.6423C54.081 11.0603 54.1522 11.5142 54.1522 11.98C54.1522 12.4219 54.0929 12.84 53.9861 13.2461C53.8675 13.6522 53.7014 14.0225 53.476 14.333C53.2506 14.6436 52.9659 14.8944 52.6101 15.0855C52.2542 15.2766 51.8509 15.3722 51.3764 15.3722C51.1747 15.3722 50.9612 15.3483 50.7595 15.3124C50.5579 15.2766 50.3562 15.2169 50.1664 15.1333C49.9766 15.0497 49.7987 14.9422 49.6444 14.8108C49.4784 14.6794 49.3479 14.5241 49.2411 14.3569H49.2174V17.5938H47.7939V8.70731H47.782ZM52.7524 11.9561C52.7524 11.6695 52.7168 11.3828 52.6338 11.1081C52.5626 10.8334 52.444 10.5945 52.2898 10.3795C52.1356 10.1645 51.9458 9.99728 51.7322 9.86589C51.5069 9.73451 51.2459 9.67479 50.9612 9.67479C50.3681 9.67479 49.9173 9.87784 49.6089 10.2959C49.3123 10.7139 49.1581 11.2753 49.1581 11.9681C49.1581 12.3025 49.1937 12.6011 49.2767 12.8758C49.3597 13.1505 49.4665 13.3894 49.6326 13.5925C49.7868 13.7955 49.9766 13.9508 50.202 14.0702C50.4274 14.1897 50.6765 14.2494 50.973 14.2494C51.3052 14.2494 51.5662 14.1777 51.7916 14.0464C52.0169 13.915 52.1949 13.7358 52.3491 13.5328C52.4914 13.3178 52.5982 13.0789 52.6575 12.8042C52.7168 12.5175 52.7524 12.2428 52.7524 11.9561ZM55.2554 6.23486H56.6789V7.58455H55.2554V6.23486ZM55.2554 8.70731H56.6789V15.193H55.2554V8.70731ZM57.9482 6.23486H59.3717V15.193H57.9482V6.23486ZM63.7133 15.3722C63.2033 15.3722 62.7406 15.2886 62.3373 15.1094C61.934 14.9302 61.6018 14.7033 61.3171 14.4047C61.0443 14.1061 60.8308 13.7358 60.6884 13.3178C60.5461 12.8997 60.463 12.4339 60.463 11.9442C60.463 11.4545 60.5342 11.0006 60.6884 10.5825C60.8308 10.1645 61.0443 9.80617 61.3171 9.49562C61.59 9.19702 61.934 8.95814 62.3373 8.79092C62.7406 8.6237 63.2033 8.52814 63.7133 8.52814C64.2234 8.52814 64.6861 8.61175 65.0894 8.79092C65.4927 8.95814 65.8249 9.19702 66.1096 9.49562C66.3824 9.79423 66.5959 10.1645 66.7383 10.5825C66.8806 11.0006 66.9637 11.4545 66.9637 11.9442C66.9637 12.4458 66.8925 12.8997 66.7383 13.3178C66.5841 13.7358 66.3824 14.0941 66.1096 14.4047C65.8367 14.7033 65.4927 14.9422 65.0894 15.1094C64.6861 15.2766 64.2353 15.3722 63.7133 15.3722ZM63.7133 14.2375C64.0218 14.2375 64.3065 14.1658 64.5319 14.0344C64.7691 13.903 64.947 13.7239 65.1013 13.5089C65.2555 13.2939 65.3622 13.043 65.4334 12.7803C65.5046 12.5056 65.5402 12.2308 65.5402 11.9442C65.5402 11.6695 65.5046 11.3947 65.4334 11.12C65.3622 10.8453 65.2555 10.6064 65.1013 10.3914C64.947 10.1764 64.7572 10.0092 64.5319 9.87784C64.2946 9.74645 64.0218 9.67479 63.7133 9.67479C63.4049 9.67479 63.1202 9.74645 62.8948 9.87784C62.6576 10.0092 62.4796 10.1884 62.3254 10.3914C62.1712 10.6064 62.0645 10.8453 61.9933 11.12C61.9221 11.3947 61.8865 11.6695 61.8865 11.9442C61.8865 12.2308 61.9221 12.5056 61.9933 12.7803C62.0645 13.055 62.1712 13.2939 62.3254 13.5089C62.4796 13.7239 62.6694 13.903 62.8948 14.0344C63.1321 14.1777 63.4049 14.2375 63.7133 14.2375ZM67.3907 8.70731H68.4702V6.74846H69.8937V8.69536H71.1748V9.7584H69.8937V13.2222C69.8937 13.3775 69.9056 13.4969 69.9174 13.6164C69.9293 13.7239 69.9649 13.8194 70.0005 13.8911C70.0479 13.9627 70.1191 14.0225 70.2021 14.0583C70.297 14.0941 70.4156 14.118 70.5817 14.118C70.6766 14.118 70.7834 14.118 70.8783 14.1061C70.9732 14.0941 71.0799 14.0822 71.1748 14.0583V15.1691C71.0206 15.193 70.8664 15.2049 70.7122 15.2169C70.558 15.2408 70.4156 15.2408 70.2496 15.2408C69.87 15.2408 69.5734 15.2049 69.348 15.1333C69.1226 15.0616 68.9447 14.9541 68.8142 14.8227C68.6837 14.6794 68.6007 14.5122 68.5532 14.3091C68.5058 14.1061 68.4821 13.8552 68.4702 13.5925V9.77034H67.3907V8.68342V8.70731Z" fill="black"/>
<path d="M17.0464 6.23487H10.5339L8.52912 0L6.5125 6.23487L0 6.22292L5.26694 10.0809L3.25032 16.3158L8.51726 12.4578L13.7842 16.3158L11.7794 10.0809L17.0464 6.23487Z" fill="black"/>
<path d="M12.2302 11.4903L11.7794 10.0809L8.52912 12.4578L12.2302 11.4903Z" fill="black"/>
<path d="M2.31063 53.8052H0.200924V52.7503H5.52541V53.8052H3.41571V59.7827H2.31063V53.8052ZM5.73379 54.9605H6.73841V55.6135C6.84557 55.4795 6.96947 55.3556 7.11012 55.2418C7.23067 55.148 7.38137 55.0609 7.5622 54.9806C7.74303 54.9002 7.954 54.86 8.19511 54.86H8.44626V55.9149C8.39938 55.9082 8.35585 55.9015 8.31566 55.8948C8.27548 55.8881 8.23194 55.8814 8.18506 55.8747C8.14488 55.868 8.098 55.8646 8.04442 55.8646C7.87028 55.8646 7.70284 55.9015 7.54211 55.9751C7.38806 56.0421 7.25077 56.1426 7.13021 56.2765C7.00966 56.4038 6.91254 56.5578 6.83887 56.7387C6.7719 56.9128 6.73841 57.107 6.73841 57.3213V59.7827H5.73379V54.9605ZM11.1623 59.8831C10.8877 59.8831 10.6332 59.8362 10.3988 59.7425C10.1643 59.642 9.96007 59.5014 9.78594 59.3205C9.6185 59.1397 9.4879 58.9187 9.39414 58.6575C9.30037 58.3963 9.25349 58.1016 9.25349 57.7734V54.9605H10.2581V57.7734C10.2581 58.1284 10.3586 58.4097 10.5595 58.6173C10.7671 58.8249 11.035 58.9287 11.3632 58.9287C11.5507 58.9287 11.7249 58.8952 11.8856 58.8283C12.0463 58.7613 12.1836 58.6709 12.2975 58.557C12.4113 58.4365 12.5018 58.2925 12.5687 58.125C12.6357 57.9576 12.6692 57.7734 12.6692 57.5725V54.9605H13.6738V59.7827H12.6692V59.0794C12.562 59.2268 12.4348 59.3607 12.2874 59.4813C12.1602 59.5817 12.0028 59.6755 11.8153 59.7626C11.6344 59.8429 11.4168 59.8831 11.1623 59.8831ZM16.4373 59.8831C16.1158 59.8831 15.8379 59.8362 15.6035 59.7425C15.3691 59.6487 15.1715 59.5449 15.0107 59.431C14.8232 59.3038 14.6625 59.1531 14.5285 58.979L15.1815 58.326C15.282 58.4532 15.3959 58.5637 15.5231 58.6575C15.637 58.7378 15.7676 58.8115 15.9149 58.8785C16.0689 58.9455 16.2431 58.979 16.4373 58.979C16.7186 58.979 16.9296 58.9187 17.0702 58.7981C17.2176 58.6709 17.2912 58.5302 17.2912 58.3762C17.2912 58.2422 17.2276 58.1384 17.1004 58.0648C16.9731 57.9844 16.8157 57.9141 16.6282 57.8538C16.4407 57.7935 16.233 57.7299 16.0053 57.6629C15.7843 57.5959 15.58 57.5089 15.3925 57.4017C15.205 57.2878 15.0476 57.1439 14.9203 56.9697C14.7931 56.7889 14.7295 56.5545 14.7295 56.2665C14.7295 56.079 14.7696 55.9015 14.85 55.734C14.9304 55.5599 15.0442 55.4092 15.1916 55.282C15.3456 55.1547 15.5298 55.0542 15.7441 54.9806C15.9651 54.9002 16.2129 54.86 16.4875 54.86C16.7755 54.86 17.0267 54.8969 17.241 54.9705C17.4553 55.0375 17.6328 55.1112 17.7735 55.1915C17.9409 55.2853 18.0815 55.3925 18.1954 55.513L17.5424 56.166C17.462 56.0923 17.3683 56.0254 17.2611 55.9651C17.1673 55.9115 17.0535 55.8646 16.9195 55.8245C16.7923 55.7843 16.6483 55.7642 16.4875 55.7642C16.233 55.7642 16.0422 55.8178 15.9149 55.9249C15.7944 56.0254 15.7341 56.1392 15.7341 56.2665C15.7341 56.4004 15.7977 56.5076 15.925 56.588C16.0522 56.6616 16.2096 56.7286 16.3971 56.7889C16.5847 56.8492 16.7889 56.9128 17.0099 56.9798C17.2377 57.0467 17.4453 57.1372 17.6328 57.251C17.8203 57.3582 17.9777 57.5022 18.105 57.683C18.2322 57.8638 18.2959 58.0949 18.2959 58.3762C18.2959 58.5771 18.2523 58.768 18.1653 58.9488C18.0849 59.1297 17.9643 59.2904 17.8036 59.431C17.6429 59.5717 17.4453 59.6822 17.2109 59.7626C16.9832 59.8429 16.7253 59.8831 16.4373 59.8831ZM21.2552 59.8831C20.7729 59.8831 20.4012 59.7492 20.14 59.4813C19.8788 59.2067 19.7482 58.8048 19.7482 58.2757V55.9149H18.8441V54.9605H19.3966C19.5507 54.9605 19.6645 54.9203 19.7382 54.8399C19.8119 54.7529 19.8487 54.6089 19.8487 54.4079V53.3531H20.7529V54.9605H21.8579V55.9149H20.7529V58.1753C20.7529 58.6776 20.9873 58.9287 21.4561 58.9287C21.5298 58.9287 21.6001 58.922 21.6671 58.9086C21.734 58.8952 21.7943 58.8785 21.8479 58.8584C21.9082 58.8316 21.9617 58.8048 22.0086 58.778V59.7324C21.9417 59.7592 21.8713 59.786 21.7977 59.8128C21.7307 59.8329 21.6503 59.8496 21.5566 59.863C21.4695 59.8764 21.369 59.8831 21.2552 59.8831ZM25.2187 59.8831C24.7901 59.8831 24.4184 59.8295 24.1036 59.7224C23.7888 59.6152 23.5276 59.4947 23.32 59.3607C23.0789 59.2067 22.8746 59.0292 22.7072 58.8283L23.4606 58.0748C23.5678 58.2221 23.7084 58.3561 23.8826 58.4766C24.0299 58.5771 24.2141 58.6709 24.4351 58.7579C24.6561 58.8383 24.9173 58.8785 25.2187 58.8785C25.4464 58.8785 25.6473 58.8517 25.8215 58.7981C25.9956 58.7378 26.143 58.6608 26.2635 58.5671C26.3841 58.4666 26.4745 58.3527 26.5348 58.2255C26.595 58.0982 26.6252 57.9643 26.6252 57.8236C26.6252 57.6294 26.5716 57.472 26.4644 57.3515C26.3573 57.2242 26.2166 57.1171 26.0425 57.03C25.8684 56.9429 25.6708 56.8693 25.4498 56.809C25.2288 56.7487 25.001 56.6851 24.7666 56.6181C24.5322 56.5444 24.3045 56.4607 24.0835 56.3669C23.8625 56.2665 23.6649 56.1426 23.4908 55.9952C23.3166 55.8412 23.176 55.6537 23.0688 55.4326C22.9617 55.2116 22.9081 54.937 22.9081 54.6089C22.9081 54.3477 22.9617 54.0999 23.0688 53.8654C23.1827 53.6243 23.3434 53.4134 23.551 53.2325C23.7587 53.0517 24.0098 52.9111 24.3045 52.8106C24.6059 52.7034 24.9441 52.6499 25.3192 52.6499C25.6808 52.6499 25.999 52.6967 26.2736 52.7905C26.5482 52.8843 26.7792 52.9881 26.9667 53.1019C27.1878 53.2359 27.3753 53.3866 27.5293 53.554L26.7759 54.3075C26.6687 54.1869 26.5448 54.0798 26.4042 53.986C26.2836 53.9056 26.1296 53.832 25.942 53.765C25.7612 53.6913 25.5536 53.6545 25.3192 53.6545C24.8905 53.6545 24.5657 53.7516 24.3447 53.9458C24.1237 54.1333 24.0132 54.3544 24.0132 54.6089C24.0132 54.8031 24.0667 54.9638 24.1739 55.0911C24.2811 55.2116 24.4217 55.3154 24.5958 55.4025C24.77 55.4896 24.9676 55.5633 25.1886 55.6235C25.4096 55.6838 25.6373 55.7508 25.8717 55.8245C26.1061 55.8914 26.3338 55.9751 26.5549 56.0756C26.7759 56.1694 26.9734 56.2933 27.1476 56.4473C27.3217 56.5947 27.4624 56.7788 27.5695 56.9999C27.6767 57.2209 27.7303 57.4955 27.7303 57.8236C27.7303 58.0982 27.67 58.3628 27.5494 58.6173C27.4356 58.8651 27.2715 59.0828 27.0572 59.2703C26.8428 59.4578 26.5783 59.6085 26.2635 59.7224C25.9554 59.8295 25.6072 59.8831 25.2187 59.8831ZM30.9482 59.8831C30.5932 59.8831 30.2617 59.8195 29.9536 59.6922C29.6522 59.5583 29.3877 59.3808 29.16 59.1598C28.9389 58.9321 28.7615 58.6675 28.6275 58.3661C28.5003 58.0581 28.4366 57.7265 28.4366 57.3716C28.4366 57.0233 28.5003 56.6951 28.6275 56.387C28.7615 56.079 28.9389 55.8144 29.16 55.5934C29.3877 55.3657 29.6522 55.1882 29.9536 55.0609C30.2617 54.927 30.5932 54.86 30.9482 54.86C31.2897 54.86 31.5844 54.9102 31.8322 55.0107C32.0867 55.1112 32.2977 55.2217 32.4652 55.3422C32.6594 55.4829 32.8235 55.6403 32.9574 55.8144L32.2542 56.4674C32.1604 56.3469 32.0499 56.2397 31.9227 56.1459C31.8088 56.0656 31.6715 55.9919 31.5108 55.9249C31.35 55.8512 31.1625 55.8144 30.9482 55.8144C30.7339 55.8144 30.5329 55.8546 30.3454 55.935C30.1646 56.0086 30.0072 56.1158 29.8732 56.2564C29.7393 56.3904 29.6321 56.5545 29.5518 56.7487C29.4781 56.9362 29.4412 57.1439 29.4412 57.3716C29.4412 57.5993 29.4781 57.8102 29.5518 58.0045C29.6321 58.192 29.7393 58.3561 29.8732 58.4967C30.0072 58.6307 30.1646 58.7378 30.3454 58.8182C30.5329 58.8919 30.7339 58.9287 30.9482 58.9287C31.1625 58.9287 31.3534 58.8952 31.5208 58.8283C31.6882 58.7546 31.8289 58.6709 31.9428 58.5771C32.0767 58.4766 32.1973 58.3594 32.3044 58.2255L33.0076 58.8785C32.8603 59.066 32.6862 59.2335 32.4852 59.3808C32.3111 59.5081 32.0968 59.6253 31.8423 59.7324C31.5878 59.8329 31.2897 59.8831 30.9482 59.8831ZM35.9689 59.8831C35.614 59.8831 35.2824 59.8195 34.9744 59.6922C34.673 59.5583 34.4084 59.3808 34.1807 59.1598C33.9597 58.9321 33.7822 58.6675 33.6483 58.3661C33.521 58.0581 33.4574 57.7265 33.4574 57.3716C33.4574 57.0233 33.521 56.6951 33.6483 56.387C33.7822 56.079 33.9597 55.8144 34.1807 55.5934C34.4084 55.3657 34.673 55.1882 34.9744 55.0609C35.2824 54.927 35.614 54.86 35.9689 54.86C36.3172 54.86 36.6454 54.927 36.9535 55.0609C37.2615 55.1882 37.5261 55.3657 37.7471 55.5934C37.9748 55.8144 38.1523 56.079 38.2796 56.387C38.4135 56.6951 38.4805 57.0233 38.4805 57.3716C38.4805 57.7265 38.4135 58.0581 38.2796 58.3661C38.1523 58.6675 37.9748 58.9321 37.7471 59.1598C37.5261 59.3808 37.2615 59.5583 36.9535 59.6922C36.6454 59.8195 36.3172 59.8831 35.9689 59.8831ZM35.9689 58.9287C36.1832 58.9287 36.3808 58.8919 36.5617 58.8182C36.7492 58.7378 36.9099 58.6307 37.0439 58.4967C37.1778 58.3561 37.2816 58.192 37.3553 58.0045C37.4357 57.8102 37.4759 57.5993 37.4759 57.3716C37.4759 57.1439 37.4357 56.9362 37.3553 56.7487C37.2816 56.5545 37.1778 56.3904 37.0439 56.2564C36.9099 56.1158 36.7492 56.0086 36.5617 55.935C36.3808 55.8546 36.1832 55.8144 35.9689 55.8144C35.7546 55.8144 35.5537 55.8546 35.3662 55.935C35.1853 56.0086 35.0279 56.1158 34.894 56.2564C34.76 56.3904 34.6529 56.5545 34.5725 56.7487C34.4988 56.9362 34.462 57.1439 34.462 57.3716C34.462 57.5993 34.4988 57.8102 34.5725 58.0045C34.6529 58.192 34.76 58.3561 34.894 58.4967C35.0279 58.6307 35.1853 58.7378 35.3662 58.8182C35.5537 58.8919 35.7546 58.9287 35.9689 58.9287ZM39.4859 54.9605H40.4905V55.6135C40.5977 55.4795 40.7216 55.3556 40.8622 55.2418C40.9828 55.148 41.1335 55.0609 41.3143 54.9806C41.4951 54.9002 41.7061 54.86 41.9472 54.86H42.1984V55.9149C42.1515 55.9082 42.1079 55.9015 42.0677 55.8948C42.0276 55.8881 41.984 55.8814 41.9371 55.8747C41.897 55.868 41.8501 55.8646 41.7965 55.8646C41.6224 55.8646 41.4549 55.9015 41.2942 55.9751C41.1402 56.0421 41.0029 56.1426 40.8823 56.2765C40.7617 56.4038 40.6646 56.5578 40.591 56.7387C40.524 56.9128 40.4905 57.107 40.4905 57.3213V59.7827H39.4859V54.9605ZM45.1176 59.8831C44.7627 59.8831 44.4311 59.8195 44.1231 59.6922C43.8217 59.5583 43.5571 59.3808 43.3294 59.1598C43.1084 58.9321 42.9309 58.6675 42.797 58.3661C42.6697 58.0581 42.6061 57.7265 42.6061 57.3716C42.6061 57.0233 42.6697 56.6951 42.797 56.387C42.9309 56.079 43.1084 55.8144 43.3294 55.5934C43.5504 55.3657 43.8083 55.1882 44.103 55.0609C44.4044 54.927 44.7258 54.86 45.0674 54.86C45.409 54.86 45.7238 54.9203 46.0117 55.0408C46.2997 55.1547 46.5475 55.3188 46.7552 55.5331C46.9695 55.7407 47.1336 55.9885 47.2474 56.2765C47.368 56.5645 47.4283 56.8793 47.4283 57.2209C47.4283 57.2945 47.4249 57.3615 47.4182 57.4218C47.4115 57.4821 47.4048 57.5357 47.3981 57.5825C47.3914 57.6361 47.3847 57.683 47.378 57.7232H43.6609C43.6877 57.8839 43.7413 58.038 43.8217 58.1853C43.9087 58.3327 44.0159 58.4633 44.1432 58.5771C44.2771 58.6843 44.4311 58.7713 44.6053 58.8383C44.7794 58.8986 44.9669 58.9287 45.1679 58.9287C45.3822 58.9287 45.5764 58.8952 45.7505 58.8283C45.9247 58.7613 46.072 58.6876 46.1926 58.6072C46.3332 58.5135 46.4605 58.403 46.5743 58.2757L47.1771 58.979C47.0432 59.1531 46.8757 59.3038 46.6748 59.431C46.5007 59.5449 46.2863 59.6487 46.0318 59.7425C45.7773 59.8362 45.4726 59.8831 45.1176 59.8831ZM46.3734 56.8693C46.2997 56.5411 46.1524 56.2765 45.9314 56.0756C45.7104 55.868 45.4224 55.7642 45.0674 55.7642C44.6857 55.7642 44.3809 55.868 44.1532 56.0756C43.9255 56.2765 43.7614 56.5411 43.6609 56.8693H46.3734ZM53.4513 58.3762H50.0356V57.1706L53.2503 52.7503H54.5564V57.3716H55.4605V58.3762H54.5564V59.7827H53.4513V58.3762ZM53.4513 57.3716V54.1066L51.0904 57.3716H53.4513ZM56.6645 59.8831C56.4904 59.8831 56.3363 59.8195 56.2024 59.6922C56.0751 59.5583 56.0115 59.4042 56.0115 59.2301C56.0115 59.056 56.0751 58.9053 56.2024 58.778C56.3363 58.6441 56.4904 58.5771 56.6645 58.5771C56.8386 58.5771 56.9893 58.6441 57.1166 58.778C57.2505 58.9053 57.3175 59.056 57.3175 59.2301C57.3175 59.4042 57.2505 59.5583 57.1166 59.6922C56.9893 59.8195 56.8386 59.8831 56.6645 59.8831ZM60.3286 59.8831C59.9067 59.8831 59.545 59.8295 59.2436 59.7224C58.9422 59.6152 58.6877 59.4947 58.4801 59.3607C58.239 59.2067 58.0347 59.0292 57.8673 58.8283L58.6207 58.0748C58.7346 58.2221 58.8753 58.3561 59.0427 58.4766C59.1833 58.5771 59.3575 58.6709 59.5651 58.7579C59.7794 58.8383 60.0339 58.8785 60.3286 58.8785C60.784 58.8785 61.1323 58.768 61.3734 58.547C61.6145 58.326 61.7351 58.0514 61.7351 57.7232C61.7351 57.4218 61.6145 57.1639 61.3734 56.9496C61.1323 56.7286 60.784 56.6181 60.3286 56.6181H59.5751V55.5633H60.3286C60.7104 55.5633 60.9983 55.4762 61.1926 55.302C61.3868 55.1212 61.4839 54.8902 61.4839 54.6089C61.4839 54.3276 61.3868 54.0999 61.1926 53.9257C60.9983 53.7449 60.7104 53.6545 60.3286 53.6545C60.0875 53.6545 59.8732 53.6913 59.6856 53.765C59.5048 53.8387 59.3474 53.919 59.2135 54.0061C59.0594 54.1132 58.9288 54.2305 58.8217 54.3577L58.0682 53.6042C58.2356 53.4301 58.4299 53.2727 58.6509 53.1321C58.8451 53.0115 59.0795 52.901 59.3541 52.8005C59.6354 52.7001 59.9602 52.6499 60.3286 52.6499C60.6769 52.6499 60.9917 52.7001 61.2729 52.8005C61.5542 52.901 61.792 53.035 61.9862 53.2024C62.1805 53.3698 62.3278 53.5674 62.4283 53.7951C62.5354 54.0228 62.589 54.2606 62.589 54.5084C62.589 54.8031 62.5321 55.0509 62.4182 55.2518C62.3111 55.446 62.1905 55.6034 62.0565 55.724C61.9025 55.8646 61.7284 55.9785 61.5341 56.0656C61.7753 56.1526 61.9929 56.2732 62.1871 56.4272C62.3479 56.5612 62.4952 56.7387 62.6292 56.9597C62.7698 57.174 62.8402 57.4452 62.8402 57.7734C62.8402 58.0614 62.7799 58.336 62.6593 58.5972C62.5455 58.8517 62.3814 59.0761 62.1671 59.2703C61.9527 59.4578 61.6882 59.6085 61.3734 59.7224C61.0653 59.8295 60.7171 59.8831 60.3286 59.8831Z" fill="black"/>
</g>
<defs>
<clipPath id="clip0_6359_85545">
<rect width="106.212" height="60" fill="white"/>
</clipPath>
</defs>
</svg>
