<svg width="219" height="226" viewBox="0 0 219 226" fill="none" xmlns="http://www.w3.org/2000/svg">
<rect width="218.512" height="225.697" rx="26" fill="#F4F6F8"/>
<path d="M94.4325 90.7416L97.5565 82.5078C100.124 88.7812 106.638 92.0696 115.707 92.0696C130.935 92.0696 134.881 83.507 138.562 72.8701C141.825 63.4854 149.768 39.8845 149.768 39.8845H153.891L154.422 38H141.698L141.18 39.8845H145.834C145.834 39.8845 137.094 65.547 133.945 74.6408C129.974 86.0998 123.27 88.212 118.211 88.212C112.342 88.212 109.016 85.265 109.016 80.2186C109.016 76.8416 110.344 73.0978 111.204 70.4797C115.036 58.9069 121.702 39.8845 121.702 39.8845H125.825L126.369 38H103.817L103.286 39.8845H107.941L98.1383 67.6213C96.7091 71.6812 96.2917 73.7176 96.355 76.3483L84.5543 39.8845H89.2088L88.6902 38H66.0376L66.5814 39.8845H70.7047L75.1948 53.5569L67.4668 76.1965L52.8583 39.8845H57.5254L57.0068 38H34L34.5312 39.8845H38.6418L59.4226 90.7416H66.4549L77.1679 59.5899L87.4001 90.7416H94.4325ZM168.55 129.646L165.211 124.271H163.415L167.855 131.038V136.16H169.271V131.038L173.711 124.271H172.016L168.575 129.646H168.55ZM154.966 133.593H154.928L150.893 124.271H148.794V136.16H150.198V126.181H150.236L154.498 136.16H155.358L159.621 126.181H159.659V136.16H161.075V124.271H159.026L154.966 133.593V133.593ZM138.916 130.62H144.569V129.305H138.916V125.574H144.974V124.271H137.499V136.16H145.278V134.845H138.916V130.608V130.62ZM128.266 134.857H125.585V125.586H128.266C130.985 125.586 133.06 126.965 133.06 130.228C133.06 133.491 130.998 134.87 128.266 134.87M128.734 124.284H124.168V136.173H128.734C131.074 136.173 134.565 134.604 134.565 130.228C134.565 125.852 131.074 124.284 128.734 124.284ZM113.885 131.948L116.352 126.105H116.39L118.742 131.948H113.885V131.948ZM115.744 124.284L110.508 136.173H112.102L113.329 133.251H119.273L120.487 136.173H122.132L117.073 124.284H115.744V124.284ZM104.412 135.161C101.743 135.161 99.8711 132.973 99.8711 130.228C99.8711 127.623 101.756 125.296 104.412 125.296C105.55 125.296 106.676 125.789 107.384 126.737L108.611 125.852C107.599 124.537 106.018 123.993 104.412 123.993C100.883 123.993 98.366 126.75 98.366 130.241C98.366 133.732 100.997 136.489 104.412 136.489C106.309 136.489 107.852 135.831 108.915 134.402L107.852 133.517C107.017 134.592 105.854 135.186 104.412 135.186M88.8926 131.961L91.359 126.118H91.3969L93.7495 131.961H88.8926ZM90.7645 124.296L85.5282 136.185H87.1219L88.3487 133.264H94.2933L95.5076 136.185H97.1518L92.0926 124.296H90.7645ZM178.744 113.609V111.193H183.905V108.777H178.744V106.564H184.208V104.148H176.126V116.037H184.512V113.622H178.744V113.609ZM168.651 111.927H168.613L165.679 104.136H162.694L167.45 116.025H169.549L174.457 104.136H171.649L168.664 111.927H168.651ZM160.468 104.136H157.85V116.025H160.468V104.136ZM149.869 116.025H152.487V106.45H155.877V104.136H146.467V106.45H149.856V116.025H149.869ZM144.481 111.446V104.136H141.863V111.345C141.863 112.799 140.851 113.912 139.472 113.912C138.094 113.912 137.069 112.799 137.069 111.345V104.136H134.451V111.446C134.451 114.254 136.158 116.328 139.472 116.328C142.786 116.328 144.481 114.241 144.481 111.446ZM132.351 114.267L130.163 112.635C129.632 113.444 128.772 113.912 127.71 113.912C125.812 113.912 124.345 112.294 124.345 110.08C124.345 107.867 125.812 106.248 127.785 106.248C128.759 106.248 129.518 106.602 130.037 107.222L132.048 105.578C131.036 104.287 129.366 103.832 128.038 103.832C124.32 103.832 121.626 106.26 121.626 110.08C121.626 113.9 124.332 116.328 128.038 116.328C129.67 116.328 131.352 115.671 132.339 114.267M119.185 106.551V104.136H111.103V116.025H119.488V113.609H113.721V111.193H118.881V108.777H113.721V106.564H119.185V106.551ZM108.674 104.136H105.5L103.058 108.297L100.529 104.136H97.2403L101.174 109.815L97.0127 116.025H100.124L102.945 111.231L105.854 116.025H109.142L104.842 109.764L108.687 104.136H108.674ZM94.7993 106.551V104.136H86.7171V116.025H95.1028V113.609H89.3353V111.193H94.4957V108.777H89.3353V106.564H94.7993V106.551Z" fill="#141412"/>
<path d="M94.4325 90.7416L97.5565 82.5078C100.124 88.7812 106.638 92.0696 115.707 92.0696C130.935 92.0696 134.881 83.507 138.562 72.8701C141.825 63.4854 149.768 39.8845 149.768 39.8845H153.891L154.422 38H141.698L141.18 39.8845H145.834C145.834 39.8845 137.094 65.547 133.945 74.6408C129.974 86.0998 123.27 88.212 118.211 88.212C112.342 88.212 109.016 85.265 109.016 80.2186C109.016 76.8416 110.344 73.0978 111.204 70.4797C115.036 58.9069 121.702 39.8845 121.702 39.8845H125.825L126.369 38H103.817L103.286 39.8845H107.941L98.1383 67.6213C96.7091 71.6812 96.2917 73.7176 96.355 76.3483L84.5543 39.8845H89.2088L88.6902 38H66.0376L66.5814 39.8845H70.7047L75.1948 53.5569L67.4668 76.1965L52.8583 39.8845H57.5254L57.0068 38H34L34.5312 39.8845H38.6418L59.4226 90.7416H66.4549L77.1679 59.5899L87.4001 90.7416H94.4325ZM168.55 129.646L165.211 124.271H163.415L167.855 131.038V136.16H169.271V131.038L173.711 124.271H172.016L168.575 129.646H168.55ZM154.966 133.593H154.928L150.893 124.271H148.794V136.16H150.198V126.181H150.236L154.498 136.16H155.358L159.621 126.181H159.659V136.16H161.075V124.271H159.026L154.966 133.593V133.593ZM138.916 130.62H144.569V129.305H138.916V125.574H144.974V124.271H137.499V136.16H145.278V134.845H138.916V130.608V130.62ZM128.266 134.857H125.585V125.586H128.266C130.985 125.586 133.06 126.965 133.06 130.228C133.06 133.491 130.998 134.87 128.266 134.87M128.734 124.284H124.168V136.173H128.734C131.074 136.173 134.565 134.604 134.565 130.228C134.565 125.852 131.074 124.284 128.734 124.284ZM113.885 131.948L116.352 126.105H116.39L118.742 131.948H113.885V131.948ZM115.744 124.284L110.508 136.173H112.102L113.329 133.251H119.273L120.487 136.173H122.132L117.073 124.284H115.744V124.284ZM104.412 135.161C101.743 135.161 99.8711 132.973 99.8711 130.228C99.8711 127.623 101.756 125.296 104.412 125.296C105.55 125.296 106.676 125.789 107.384 126.737L108.611 125.852C107.599 124.537 106.018 123.993 104.412 123.993C100.883 123.993 98.366 126.75 98.366 130.241C98.366 133.732 100.997 136.489 104.412 136.489C106.309 136.489 107.852 135.831 108.915 134.402L107.852 133.517C107.017 134.592 105.854 135.186 104.412 135.186M88.8926 131.961L91.359 126.118H91.3969L93.7495 131.961H88.8926ZM90.7645 124.296L85.5282 136.185H87.1219L88.3487 133.264H94.2933L95.5076 136.185H97.1518L92.0926 124.296H90.7645ZM178.744 113.609V111.193H183.905V108.777H178.744V106.564H184.208V104.148H176.126V116.037H184.512V113.622H178.744V113.609ZM168.651 111.927H168.613L165.679 104.136H162.694L167.45 116.025H169.549L174.457 104.136H171.649L168.664 111.927H168.651ZM160.468 104.136H157.85V116.025H160.468V104.136ZM149.869 116.025H152.487V106.45H155.877V104.136H146.467V106.45H149.856V116.025H149.869ZM144.481 111.446V104.136H141.863V111.345C141.863 112.799 140.851 113.912 139.472 113.912C138.094 113.912 137.069 112.799 137.069 111.345V104.136H134.451V111.446C134.451 114.254 136.158 116.328 139.472 116.328C142.786 116.328 144.481 114.241 144.481 111.446ZM132.351 114.267L130.163 112.635C129.632 113.444 128.772 113.912 127.71 113.912C125.812 113.912 124.345 112.294 124.345 110.08C124.345 107.867 125.812 106.248 127.785 106.248C128.759 106.248 129.518 106.602 130.037 107.222L132.048 105.578C131.036 104.287 129.366 103.832 128.038 103.832C124.32 103.832 121.626 106.26 121.626 110.08C121.626 113.9 124.332 116.328 128.038 116.328C129.67 116.328 131.352 115.671 132.339 114.267M119.185 106.551V104.136H111.103V116.025H119.488V113.609H113.721V111.193H118.881V108.777H113.721V106.564H119.185V106.551ZM108.674 104.136H105.5L103.058 108.297L100.529 104.136H97.2403L101.174 109.815L97.0127 116.025H100.124L102.945 111.231L105.854 116.025H109.142L104.842 109.764L108.687 104.136H108.674ZM94.7993 106.551V104.136H86.7171V116.025H95.1028V113.609H89.3353V111.193H94.4957V108.777H89.3353V106.564H94.7993V106.551Z" fill="#141412"/>
<path d="M101.087 185.219L100.682 186.344H101.491L101.087 185.219ZM99.6953 187.381L100.783 184.485H101.415L102.503 187.381H101.858L101.681 186.888H100.492L100.315 187.381H99.6953Z" fill="#3C776A"/>
<path d="M104.058 184.422C104.779 184.422 105.348 184.852 105.462 185.56H104.83C104.741 185.193 104.45 184.991 104.058 184.991C103.527 184.991 103.236 185.358 103.236 185.927C103.236 186.496 103.539 186.863 104.058 186.863C104.45 186.863 104.741 186.66 104.83 186.294H105.462C105.348 187.002 104.779 187.432 104.058 187.432C103.223 187.432 102.604 186.837 102.604 185.927C102.604 185.016 103.223 184.422 104.058 184.422Z" fill="#3C776A"/>
<path d="M107.265 184.421C107.986 184.421 108.555 184.851 108.669 185.56H108.037C107.948 185.193 107.657 184.991 107.265 184.991C106.734 184.991 106.443 185.357 106.443 185.926C106.443 186.496 106.747 186.862 107.265 186.862C107.657 186.862 107.948 186.66 108.037 186.293H108.669C108.555 187.002 107.986 187.432 107.265 187.432C106.43 187.432 105.811 186.837 105.811 185.926C105.811 185.016 106.43 184.421 107.265 184.421Z" fill="#3C776A"/>
<path d="M110.321 185.029H109.6V185.737H110.321C110.574 185.737 110.688 185.598 110.688 185.396C110.688 185.193 110.562 185.042 110.321 185.042M110.713 187.394L110.169 186.294H109.6V187.394H109.006V184.498H110.321C110.954 184.498 111.283 184.877 111.283 185.408C111.283 185.788 111.105 186.091 110.764 186.231L111.396 187.394H110.713Z" fill="#3C776A"/>
<path d="M113.926 187.369H111.852V184.485H113.926V185.029H112.446V185.636H113.863V186.18H112.446V186.825H113.926V187.369Z" fill="#3C776A"/>
<path d="M115.544 185.029H115.114V186.825H115.544C116.176 186.825 116.455 186.471 116.455 185.927C116.455 185.383 116.176 185.029 115.544 185.029M114.52 187.381V184.485H115.557C116.543 184.485 117.074 185.092 117.074 185.927C117.074 186.762 116.531 187.369 115.557 187.369H114.52V187.381Z" fill="#3C776A"/>
<path d="M118.061 184.485H117.467V187.381H118.061V184.485Z" fill="#3C776A"/>
<path d="M120.622 185.042H119.825V187.369H119.23V185.042H118.434V184.485H120.622V185.042Z" fill="#3C776A"/>
<path d="M122.919 187.369H120.832V184.485H122.919V185.029H121.426V185.636H122.856V186.18H121.426V186.825H122.919V187.369Z" fill="#3C776A"/>
<path d="M124.415 185.029H123.985V186.825H124.415C125.048 186.825 125.326 186.471 125.326 185.927C125.326 185.383 125.048 185.029 124.415 185.029M123.391 187.381V184.485H124.428C125.414 184.485 125.946 185.092 125.946 185.927C125.946 186.762 125.402 187.369 124.428 187.369H123.391V187.381Z" fill="#3C776A"/>
<path d="M91.6641 177.238V182.145L96.5715 187.052V177.238H91.6641Z" fill="#86BFAF"/>
<path d="M91.6821 172.33H81.8672L86.7746 177.238H91.6821V172.33Z" fill="#BBD132"/>
<path d="M96.5715 172.331H91.6641V177.238H96.5715V172.331Z" fill="#3C776A"/>
<path d="M86.2512 182.65V177.743L81.3438 172.836V182.65H86.2512Z" fill="#86BFAF"/>
<path d="M86.2578 182.65V187.558H96.0727L91.1653 182.65H86.2578Z" fill="#BBD132"/>
<path d="M86.2512 182.65H81.3438V187.558H86.2512V182.65Z" fill="#3C776A"/>
<path d="M102.327 178.743L101.492 181.108H103.187L102.352 178.743H102.34H102.327ZM99.418 183.27L101.695 177.212H103.01L105.287 183.27H103.946L103.579 182.233H101.088L100.721 183.27H99.418V183.27Z" fill="#3C776A"/>
<path d="M107.917 178.742L107.082 181.107H108.777L107.942 178.742H107.93H107.917ZM105.008 183.27L107.284 177.211H108.6L110.877 183.27H109.536L109.169 182.233H106.677L106.311 183.27H105.008V183.27Z" fill="#3C776A"/>
<path d="M120.069 181.576C120.069 180.375 116.831 181.323 116.831 178.945C116.831 177.921 117.641 177.073 119.045 177.073C120.449 177.073 121.258 178.009 121.296 179.097H120.082C120.056 178.566 119.677 178.186 119.032 178.186C118.437 178.186 118.071 178.477 118.071 178.869C118.071 180.084 121.347 179.122 121.347 181.538C121.347 182.626 120.385 183.385 118.943 183.385C117.261 183.385 116.641 182.348 116.604 181.348H117.83C117.868 181.842 118.222 182.284 119.007 182.284C119.677 182.284 120.069 182.031 120.069 181.589" fill="#3C776A"/>
<path d="M122.974 180.766V182.145H124.403C124.934 182.145 125.175 181.879 125.175 181.449C125.175 181.019 124.934 180.754 124.403 180.754H122.974V180.766ZM122.974 178.338V179.653H124.315C124.795 179.653 125.086 179.426 125.086 178.996C125.086 178.642 124.859 178.338 124.315 178.338H122.974V178.338ZM121.76 183.271V177.212H124.315C125.706 177.212 126.326 177.959 126.326 178.882C126.326 179.514 125.997 179.995 125.478 180.223C126.035 180.438 126.414 180.918 126.414 181.563C126.414 182.6 125.744 183.283 124.429 183.283H121.76V183.271Z" fill="#3C776A"/>
<path d="M115.065 181.349C114.8 181.893 114.256 182.196 113.585 182.196C112.472 182.196 111.853 181.425 111.853 180.236C111.853 179.047 112.472 178.276 113.585 178.276C114.395 178.276 115.015 178.706 115.192 179.464H116.52C116.292 177.985 115.09 177.087 113.585 177.087C111.84 177.087 110.537 178.339 110.537 180.236C110.537 182.133 111.84 183.385 113.585 183.385C114.977 183.385 116.102 182.626 116.444 181.349H115.065V181.349Z" fill="#3C776A"/>
<path d="M167.171 179.931L164.666 175.909H163.945V183.144H164.843V177.895L166.842 181.032H167.474L169.473 177.819V183.144H170.396V175.909H169.675L167.171 179.931Z" fill="#00224A"/>
<path d="M174.285 178.983H172.578V176.744H174.285C175.082 176.744 175.55 177.174 175.55 177.882C175.55 178.591 175.069 178.983 174.272 178.983M175.929 181.044C175.929 181.917 175.398 182.322 174.247 182.322H172.565V179.792H174.196C175.297 179.792 175.929 180.247 175.929 181.044M175.575 179.311C176.144 178.995 176.473 178.464 176.473 177.832C176.473 176.504 175.423 175.909 174.386 175.909H171.629V183.144H174.323C175.879 183.144 176.853 182.347 176.853 181.07C176.853 180.197 176.372 179.564 175.562 179.311" fill="#00224A"/>
<path d="M180.586 177.326L181.725 180.197H179.461L180.586 177.326ZM180.232 175.909L177.285 183.156H178.297L179.132 181.019H182.041L182.888 183.156H183.913L180.991 175.909H180.232Z" fill="#00224A"/>
<path d="M157.785 174.329L159.594 178.894H155.989L157.785 174.329V174.329ZM155.547 180.045H160.049L161.289 183.157H162.731L158.367 172.355H157.28L152.891 183.157H154.32L155.534 180.045H155.547Z" fill="#00224A"/>
<path d="M161.32 175.999C160.966 175.999 160.788 176.289 160.788 176.618C160.788 176.947 160.966 177.238 161.32 177.238C161.674 177.238 161.851 176.947 161.851 176.618C161.851 176.289 161.674 175.999 161.32 175.999ZM161.32 177.364C160.864 177.364 160.637 176.998 160.637 176.606C160.637 176.214 160.864 175.859 161.32 175.859C161.775 175.859 162.003 176.214 162.003 176.606C162.003 176.998 161.775 177.364 161.32 177.364Z" fill="#158E8F"/>
<path d="M162.501 176.719V177.338H162.35V175.896H163.26V176.036H162.501V176.592H163.197V176.719H162.501Z" fill="#158E8F"/>
<path d="M183.594 175.96C183.24 175.96 183.088 176.112 183.088 176.34C183.088 176.959 184.391 176.694 184.391 177.529C184.391 177.959 184.037 178.186 183.556 178.186C183.215 178.186 182.937 178.072 182.709 177.807L182.899 177.63C183.063 177.832 183.265 177.959 183.569 177.959C183.936 177.959 184.138 177.794 184.138 177.554C184.138 176.858 182.835 177.174 182.835 176.352C182.835 176.024 183.05 175.72 183.594 175.72C183.923 175.72 184.164 175.821 184.379 176.074L184.201 176.239C184.05 176.036 183.86 175.935 183.594 175.935" fill="#158E8F"/>
<path d="M161.676 172.609C161.284 172.609 161.107 172.786 161.107 173.039C161.107 173.735 162.587 173.444 162.587 174.38C162.587 174.86 162.182 175.126 161.651 175.126C161.259 175.126 160.955 174.999 160.689 174.696L160.904 174.506C161.082 174.734 161.322 174.886 161.663 174.886C162.068 174.886 162.296 174.709 162.296 174.43C162.296 173.659 160.816 174 160.816 173.077C160.816 172.71 161.069 172.369 161.676 172.369C162.043 172.369 162.321 172.482 162.561 172.773L162.359 172.963C162.195 172.735 161.967 172.622 161.676 172.622" fill="#158E8F"/>
<path d="M164.264 172.609C163.872 172.609 163.695 172.786 163.695 173.039C163.695 173.734 165.175 173.443 165.175 174.379C165.175 174.86 164.77 175.126 164.239 175.126C163.847 175.126 163.543 174.999 163.277 174.696L163.492 174.506C163.669 174.734 163.91 174.885 164.251 174.885C164.656 174.885 164.884 174.708 164.884 174.43C164.884 173.658 163.404 174 163.404 173.077C163.404 172.71 163.657 172.368 164.264 172.368C164.631 172.368 164.909 172.482 165.149 172.773L164.947 172.963C164.782 172.735 164.555 172.621 164.264 172.621" fill="#158E8F"/>
<path d="M167.003 172.609C166.358 172.609 166.029 173.153 166.029 173.747C166.029 174.342 166.358 174.886 167.003 174.886C167.648 174.886 167.977 174.342 167.977 173.747C167.977 173.153 167.648 172.609 167.003 172.609ZM167.003 175.126C166.168 175.126 165.738 174.468 165.738 173.747C165.738 173.026 166.168 172.369 167.003 172.369C167.838 172.369 168.268 173.026 168.268 173.747C168.268 174.468 167.838 175.126 167.003 175.126Z" fill="#158E8F"/>
<path d="M169.932 172.369C170.362 172.369 170.666 172.533 170.893 172.812L170.691 172.989C170.489 172.723 170.236 172.609 169.945 172.609C169.312 172.609 169.021 173.178 169.021 173.748C169.021 174.317 169.3 174.886 169.945 174.886C170.236 174.886 170.476 174.772 170.691 174.506L170.893 174.683C170.666 174.949 170.362 175.126 169.932 175.126C169.11 175.126 168.73 174.456 168.73 173.748C168.73 173.039 169.11 172.369 169.932 172.369Z" fill="#158E8F"/>
<path d="M171.958 172.419H171.68V175.075H171.958V172.419Z" fill="#158E8F"/>
<path d="M173.76 172.785L173.28 174.024H174.253L173.76 172.785ZM174.671 175.074L174.342 174.265H173.178L172.862 175.074H172.559L173.659 172.38H173.899L174.987 175.074H174.671Z" fill="#158E8F"/>
<path d="M176.226 172.672V175.075H175.935V172.672H174.961V172.419H177.2V172.672H176.226Z" fill="#158E8F"/>
<path d="M178.142 172.419H177.863V175.075H178.142V172.419Z" fill="#158E8F"/>
<path d="M180.196 172.608C179.551 172.608 179.223 173.152 179.223 173.747C179.223 174.341 179.551 174.885 180.196 174.885C180.841 174.885 181.17 174.341 181.17 173.747C181.17 173.152 180.841 172.608 180.196 172.608ZM180.196 175.125C179.362 175.125 178.932 174.467 178.932 173.747C178.932 173.026 179.362 172.368 180.196 172.368C181.031 172.368 181.461 173.026 181.461 173.747C181.461 174.467 181.031 175.125 180.196 175.125Z" fill="#158E8F"/>
<path d="M182.152 172.381V175.075H182.418V172.937L184.075 175.113H184.277V172.419H184.012V174.581L182.355 172.381H182.152Z" fill="#158E8F"/>
<path d="M142.5 172.609H137.58V177.264H142.5V172.609Z" fill="url(#paint0_linear_7323_106061)"/>
<path d="M153.265 177.452L147.979 182.739V177.452H153.265Z" fill="#D6D9DB"/>
<path d="M147.979 174.797V173.494V172.166L153.265 177.453H147.979V174.797Z" fill="#73ADB0"/>
<path d="M147.781 177.643H142.861V182.563H147.781V177.643Z" fill="url(#paint1_linear_7323_106061)"/>
<path d="M147.516 182.928H142.861V187.406H147.516V182.928Z" fill="url(#paint2_linear_7323_106061)"/>
<path d="M142.478 177.896H137.646V187.394H142.478V177.896Z" fill="url(#paint3_linear_7323_106061)"/>
<path d="M142.235 177.642H137.58V182.297H142.235V177.642Z" fill="url(#paint4_linear_7323_106061)"/>
<path d="M132.111 177.453H137.398V172.166L132.111 177.453Z" fill="#C67075"/>
<path d="M147.977 177.452V180.096L150.62 177.452H147.977Z" fill="#E3E4E5"/>
<path d="M150.62 177.452L147.977 174.809V177.452H150.62Z" fill="#A3C6C7"/>
<path d="M137.222 177.643H132.744V182.297H137.222V177.643Z" fill="url(#paint5_linear_7323_106061)"/>
<path d="M142.502 172.608H138.721V177.263H142.502V172.608Z" fill="url(#paint6_linear_7323_106061)"/>
<path d="M137.395 177.453L138.723 178.768L140.051 177.453H137.395Z" fill="white"/>
<path d="M137.395 177.453L138.723 178.768L140.051 177.453H137.395Z" fill="white"/>
<path d="M138.718 174.999H137.58V177.275H138.718V174.999Z" fill="url(#paint7_linear_7323_106061)"/>
<path d="M134.74 177.453H137.384V174.81L134.74 177.453Z" fill="#C67075"/>
<path d="M134.74 177.453H137.384V174.81L134.74 177.453Z" fill="#D59F9D"/>
<path d="M137.22 177.642H134.943V179.918H137.22V177.642Z" fill="url(#paint8_linear_7323_106061)"/>
<path d="M137.207 177.642H134.943V179.918H137.207V177.642Z" fill="url(#paint9_linear_7323_106061)"/>
<path d="M139.857 176.125H137.58V177.263H139.857V176.125Z" fill="url(#paint10_linear_7323_106061)"/>
<path d="M138.718 177.642H137.58V179.919H138.718V177.642Z" fill="url(#paint11_linear_7323_106061)"/>
<path d="M142.237 177.642H138.721V179.969H142.237V177.642Z" fill="url(#paint12_linear_7323_106061)"/>
<path d="M142.493 177.896H140.166V182.55H142.493V177.896Z" fill="url(#paint13_linear_7323_106061)"/>
<path d="M147.57 171.607L142.123 172.469L143 178.004L148.446 177.141L147.57 171.607Z" fill="url(#paint14_linear_7323_106061)"/>
<path d="M147.295 171.65L142.123 172.469L142.994 177.966L148.165 177.147L147.295 171.65Z" fill="url(#paint15_linear_7323_106061)"/>
<path d="M147.33 175.883L145.381 176.192L145.597 177.554L147.545 177.245L147.33 175.883Z" fill="url(#paint16_linear_7323_106061)"/>
<path d="M147.658 175.271L146.459 175.461L146.708 177.035L147.908 176.845L147.658 175.271Z" fill="url(#paint17_linear_7323_106061)"/>
<path d="M147.789 177.643H146.65V179.92H147.789V177.643Z" fill="url(#paint18_linear_7323_106061)"/>
<path d="M146.643 177.643H142.861V182.563H146.643V177.643Z" fill="url(#paint19_linear_7323_106061)"/>
<path d="M147.783 177.642H145.506V178.78H147.783V177.642Z" fill="url(#paint20_linear_7323_106061)"/>
<path d="M154.346 184.75L154.941 186.242H153.764L154.346 184.75V184.75ZM154.207 184.256L152.879 187.507H153.246L153.638 186.52H155.042L155.434 187.507H155.813L154.498 184.256H154.207Z" fill="#3B979A"/>
<path d="M157.78 184.244C158.298 184.244 158.665 184.447 158.931 184.776L158.678 184.991C158.425 184.674 158.134 184.535 157.78 184.535C157.008 184.535 156.667 185.231 156.667 185.901C156.667 186.572 157.008 187.267 157.78 187.267C158.134 187.267 158.425 187.128 158.678 186.812L158.931 187.027C158.665 187.356 158.298 187.558 157.78 187.558C156.793 187.558 156.338 186.749 156.338 185.901C156.338 185.054 156.793 184.232 157.78 184.232" fill="#3B979A"/>
<path d="M161.004 184.244C161.523 184.244 161.89 184.447 162.155 184.776L161.902 184.991C161.649 184.674 161.359 184.535 161.004 184.535C160.233 184.535 159.891 185.231 159.891 185.901C159.891 186.572 160.233 187.267 161.004 187.267C161.359 187.267 161.649 187.128 161.902 186.812L162.155 187.027C161.89 187.356 161.523 187.558 161.004 187.558C160.018 187.558 159.562 186.749 159.562 185.901C159.562 185.054 160.018 184.232 161.004 184.232" fill="#3B979A"/>
<path d="M164.451 184.598H163.654V185.876H164.426C164.83 185.876 165.134 185.674 165.134 185.218C165.134 184.826 164.843 184.586 164.463 184.586M165.273 187.507L164.35 186.167H163.654V187.507H163.312V184.295H164.463C165.007 184.295 165.463 184.624 165.463 185.206C165.463 185.737 165.121 186.04 164.716 186.104L165.69 187.495H165.273V187.507Z" fill="#3B979A"/>
<path d="M166.77 184.308V187.508H168.768V187.204H167.098V186.002H168.528V185.699H167.098V184.611H168.679V184.308H166.77Z" fill="#3B979A"/>
<path d="M171.072 184.599H170.275V187.217H171.072C171.881 187.217 172.286 186.673 172.286 185.914C172.286 185.155 171.818 184.611 171.072 184.611M171.097 187.52H169.934V184.308H171.097C172.147 184.308 172.64 185.041 172.64 185.901C172.64 186.761 172.122 187.508 171.097 187.508" fill="#3B979A"/>
<path d="M174 184.308H173.658V187.52H174V184.308Z" fill="#3B979A"/>
<path d="M174.918 184.308V184.611H176.107V187.508H176.436V184.611H177.625V184.308H174.918Z" fill="#3B979A"/>
<path d="M178.521 184.308V187.508H180.52V187.204H178.85V186.002H180.28V185.699H178.85V184.611H180.419V184.308H178.521Z" fill="#3B979A"/>
<path d="M182.818 184.599H182.021V187.217H182.818C183.627 187.217 184.032 186.673 184.032 185.914C184.032 185.155 183.564 184.611 182.818 184.611M182.843 187.52H181.68V184.308H182.843C183.893 184.308 184.386 185.041 184.386 185.901C184.386 186.761 183.868 187.508 182.843 187.508" fill="#3B979A"/>
<path d="M40.6277 179.349C40.5771 179.21 40.5266 179.071 40.476 178.919C40.3115 178.413 40.1851 177.869 40.0965 177.275C39.9953 177.313 39.8942 177.351 39.793 177.376C39.8815 177.958 40.008 178.514 40.1851 179.02C40.2483 179.21 40.3242 179.4 40.3874 179.577C40.4633 179.501 40.5519 179.425 40.6277 179.349" fill="#D8D8D6"/>
<path d="M36.5267 170.293C36.3623 170.218 36.2105 170.116 36.084 170.015C35.5908 171.09 35.3125 172.279 35.3125 173.531C35.3125 173.531 35.3125 173.557 35.3125 173.569C35.4769 173.519 35.654 173.493 35.8311 173.493C35.8311 172.355 36.084 171.28 36.5267 170.306" fill="#D8D8D6"/>
<path d="M46.2891 166.917C46.4408 167.195 46.5926 167.511 46.7064 167.853C46.8076 167.84 46.9088 167.815 46.9974 167.802C46.8456 167.385 46.6685 167.005 46.4788 166.677C46.4155 166.765 46.3523 166.841 46.2891 166.917" fill="#D8D8D6"/>
<path d="M37.813 174.228C37.9901 174.519 38.1798 174.809 38.3822 175.1C38.4454 175.012 38.5213 174.936 38.6098 174.873C38.4201 174.607 38.2557 174.341 38.0912 174.076C38.5719 173.836 39.1031 173.583 39.6849 173.342C39.647 173.747 39.6217 174.164 39.609 174.556C39.7228 174.556 39.824 174.582 39.9252 174.62C39.9252 174.152 39.9632 173.684 40.0264 173.203C41.0256 172.798 42.1386 172.394 43.3023 172.04C43.6311 171.938 43.96 171.837 44.2762 171.749C44.2635 171.685 44.2382 171.61 44.2256 171.546C43.8967 171.635 43.5679 171.736 43.239 171.837C42.1007 172.191 41.0256 172.571 40.0517 172.963C40.3047 170.927 40.8738 169.067 41.6833 167.663C42.6698 167.929 43.7196 168.422 44.7568 169.105C44.82 169.017 44.8833 168.941 44.9465 168.865C43.9094 168.182 42.8469 167.676 41.8477 167.398C42.0627 167.044 42.3031 166.74 42.5307 166.487C42.4801 166.386 42.4295 166.285 42.3916 166.184C42.088 166.487 41.8098 166.867 41.5315 167.322C40.8359 167.157 40.1782 167.094 39.5837 167.145C39.6343 167.233 39.6723 167.335 39.7102 167.436C39.8114 167.436 39.9126 167.436 40.0264 167.436C40.4564 167.436 40.8991 167.499 41.3797 167.6C40.5576 169.055 39.9758 170.977 39.7355 173.064C39.7355 173.077 39.7355 173.089 39.7355 173.102C39.1031 173.368 38.5213 173.633 38.0154 173.886C37.6865 173.317 37.4335 172.735 37.2565 172.166C37.0541 171.546 36.9656 170.964 36.9529 170.433C36.8391 170.408 36.7379 170.37 36.6367 170.319C36.6367 170.914 36.7379 171.559 36.9529 172.255C37.1426 172.836 37.4083 173.431 37.7371 174.025" fill="#D8D8D6"/>
<path d="M39.8131 180.399C38.6874 179.754 37.7514 178.844 37.0558 177.743C36.904 177.832 36.7396 177.908 36.5625 177.958C37.3214 179.185 38.3712 180.197 39.6233 180.905C39.6739 180.728 39.7245 180.564 39.8004 180.399" fill="#D8D8D6"/>
<path d="M46.7422 166.183C48.3738 166.841 49.7271 168.03 50.6125 169.535C50.7643 169.434 50.9287 169.37 51.0931 169.32C50.1445 167.676 48.652 166.373 46.8687 165.665C46.8434 165.842 46.8054 166.019 46.7422 166.183" fill="#D8D8D6"/>
<path d="M39.0664 166.512C39.1929 166.625 39.3194 166.764 39.4206 166.904C40.268 166.347 41.2292 165.942 42.2664 165.753C42.2411 165.626 42.2284 165.5 42.2284 165.361C42.2284 165.31 42.2284 165.272 42.2284 165.221C41.0774 165.436 40.0024 165.879 39.0664 166.512Z" fill="#D8D8D6"/>
<path d="M52.2107 173.595V173.532C52.2107 173.152 52.1854 172.785 52.1348 172.431C51.9704 172.494 51.806 172.545 51.6289 172.558C51.6669 172.874 51.6921 173.203 51.6921 173.532C51.6921 173.557 51.6921 173.569 51.6921 173.595H52.2107V173.595Z" fill="#D8D8D6"/>
<path d="M39.5057 174.897C38.9112 174.897 38.418 175.39 38.418 175.985C38.418 176.579 38.9112 177.072 39.5057 177.072C40.1002 177.072 40.5934 176.579 40.5934 175.985C40.5934 175.39 40.1002 174.897 39.5057 174.897Z" fill="#D8D8D6"/>
<path d="M47.3209 168.219C45.8284 168.219 44.6016 169.433 44.6016 170.938C44.6016 172.443 45.8158 173.658 47.3209 173.658C48.826 173.658 50.0402 172.443 50.0402 170.938C50.0402 169.433 48.826 168.219 47.3209 168.219Z" fill="#D8D8D6"/>
<path d="M35.9099 173.86C34.8601 173.86 34 174.72 34 175.769C34 176.819 34.8601 177.679 35.9099 177.679C36.9596 177.679 37.8197 176.819 37.8197 175.769C37.8197 174.72 36.9596 173.86 35.9099 173.86Z" fill="#D8D8D6"/>
<path d="M37.5213 166.335C36.4841 166.335 35.6367 167.182 35.6367 168.219C35.6367 169.256 36.4841 170.104 37.5213 170.104C38.5584 170.104 39.4058 169.256 39.4058 168.219C39.4058 167.182 38.5584 166.335 37.5213 166.335Z" fill="#D8D8D6"/>
<path d="M44.5604 163.489C43.5359 163.489 42.7012 164.324 42.7012 165.348C42.7012 166.372 43.5359 167.207 44.5604 167.207C45.5849 167.207 46.4197 166.372 46.4197 165.348C46.4197 164.324 45.5849 163.489 44.5604 163.489Z" fill="#D8D8D6"/>
<path d="M51.491 169.636C51.023 169.636 50.6183 169.889 50.3906 170.256C50.4412 170.471 50.4665 170.699 50.4665 170.939C50.4665 171.167 50.4412 171.382 50.4033 171.584C50.6309 171.951 51.0357 172.191 51.491 172.191C52.1993 172.191 52.7811 171.609 52.7811 170.901C52.7811 170.193 52.1993 169.611 51.491 169.611" fill="#D8D8D6"/>
<path d="M43.7575 185.496L44.1117 186.533H43.3781L43.7449 185.496H43.7575ZM43.454 184.801L42.3789 187.634H43.0113L43.239 187.001H44.3014L44.5164 187.634H45.1615L44.099 184.801H43.454V184.801Z" fill="#545859"/>
<path d="M47.7603 185.547C47.7603 185.547 47.6718 185.433 47.6212 185.395C47.5706 185.345 47.5073 185.319 47.4315 185.294C47.3556 185.269 47.2923 185.256 47.2164 185.256C47.0773 185.256 46.9508 185.281 46.8623 185.332C46.7611 185.382 46.6852 185.458 46.622 185.547C46.5587 185.635 46.5208 185.737 46.4828 185.863C46.4576 185.977 46.4449 186.103 46.4449 186.23C46.4449 186.356 46.4576 186.47 46.4828 186.584C46.5081 186.698 46.5587 186.799 46.622 186.888C46.6852 186.976 46.7611 187.052 46.8623 187.103C46.9635 187.153 47.0773 187.178 47.2164 187.178C47.4062 187.178 47.5579 187.115 47.6591 187.001C47.7603 186.888 47.8362 186.736 47.8615 186.546H48.4686C48.4559 186.723 48.4054 186.888 48.3421 187.027C48.2789 187.166 48.1903 187.292 48.0765 187.394C47.9627 187.495 47.8362 187.571 47.6971 187.621C47.5453 187.672 47.3935 187.697 47.2164 187.697C47.0014 187.697 46.799 187.659 46.6346 187.583C46.4576 187.507 46.3184 187.406 46.1919 187.267C46.0781 187.128 45.9769 186.976 45.9137 186.799C45.8504 186.622 45.8125 186.432 45.8125 186.217C45.8125 186.002 45.8504 185.813 45.9137 185.623C45.9769 185.446 46.0655 185.281 46.1919 185.142C46.3058 185.003 46.4576 184.902 46.6346 184.826C46.8117 184.75 47.0014 184.712 47.2164 184.712C47.3682 184.712 47.52 184.737 47.6591 184.775C47.7982 184.826 47.9247 184.889 48.0386 184.978C48.1524 185.066 48.2409 185.167 48.3168 185.294C48.3927 185.42 48.4307 185.572 48.4559 185.737H47.8488C47.8488 185.661 47.8109 185.598 47.773 185.534" fill="#545859"/>
<path d="M51.2369 185.547C51.2369 185.547 51.1483 185.433 51.0977 185.395C51.0471 185.345 50.9839 185.319 50.908 185.294C50.8321 185.269 50.7689 185.256 50.693 185.256C50.5539 185.256 50.4274 185.281 50.3389 185.332C50.2377 185.382 50.1618 185.458 50.0985 185.547C50.0353 185.635 49.9974 185.737 49.9594 185.863C49.9341 185.977 49.9215 186.103 49.9215 186.23C49.9215 186.356 49.9341 186.47 49.9594 186.584C49.9847 186.698 50.0353 186.799 50.0985 186.888C50.1618 186.976 50.2377 187.052 50.3389 187.103C50.44 187.153 50.5539 187.178 50.693 187.178C50.8827 187.178 51.0345 187.115 51.1357 187.001C51.2369 186.888 51.3128 186.736 51.338 186.546H51.9452C51.9325 186.723 51.8819 186.888 51.8187 187.027C51.7554 187.166 51.6669 187.292 51.5531 187.394C51.4392 187.495 51.3128 187.571 51.1736 187.621C51.0218 187.672 50.8701 187.697 50.693 187.697C50.478 187.697 50.2756 187.659 50.1112 187.583C49.9341 187.507 49.795 187.406 49.6685 187.267C49.5547 187.128 49.4535 186.976 49.3902 186.799C49.327 186.622 49.2891 186.432 49.2891 186.217C49.2891 186.002 49.327 185.813 49.3902 185.623C49.4535 185.446 49.542 185.281 49.6685 185.142C49.7823 185.003 49.9341 184.902 50.1112 184.826C50.2883 184.75 50.478 184.712 50.693 184.712C50.8448 184.712 50.9966 184.737 51.1357 184.775C51.2748 184.826 51.4013 184.889 51.5151 184.978C51.629 185.066 51.7175 185.167 51.7934 185.294C51.8693 185.42 51.9072 185.572 51.9325 185.737H51.3254C51.3254 185.661 51.2875 185.598 51.2495 185.534" fill="#545859"/>
<path d="M54.2198 186.078C54.3589 186.078 54.4728 186.04 54.536 185.977C54.6119 185.914 54.6372 185.812 54.6372 185.673C54.6372 185.534 54.5992 185.433 54.536 185.37C54.4601 185.306 54.3589 185.281 54.2198 185.281H53.5368V186.078H54.2198V186.078ZM54.4475 184.801C54.5739 184.801 54.6878 184.826 54.789 184.864C54.8901 184.902 54.9787 184.965 55.0546 185.028C55.1305 185.104 55.181 185.18 55.219 185.281C55.2569 185.37 55.2822 185.471 55.2822 185.585C55.2822 185.749 55.2443 185.901 55.181 186.015C55.1178 186.129 54.9913 186.23 54.8395 186.293C54.9154 186.318 54.9787 186.356 55.0293 186.394C55.0799 186.432 55.1178 186.495 55.1557 186.546C55.1937 186.609 55.2063 186.672 55.2316 186.748C55.2443 186.824 55.2569 186.887 55.2569 186.963C55.2569 187.014 55.2569 187.064 55.2569 187.128C55.2569 187.191 55.2569 187.254 55.2696 187.317C55.2696 187.381 55.2822 187.444 55.3075 187.495C55.3202 187.545 55.3455 187.596 55.3708 187.634H54.751C54.7131 187.545 54.7004 187.431 54.6878 187.317C54.6751 187.204 54.6625 187.077 54.6498 186.963C54.6245 186.812 54.5866 186.71 54.5107 186.634C54.4475 186.571 54.3336 186.533 54.1692 186.533H53.5494V187.646H52.9297V184.813H54.4601L54.4475 184.801Z" fill="#545859"/>
<path d="M56.3242 184.787V187.633H58.4744V187.102H56.944V186.406H58.3226V185.926H56.944V185.319H58.4491V184.787H56.3242Z" fill="#545859"/>
<path d="M60.6234 187.102C60.712 187.102 60.8005 187.089 60.8891 187.051C60.9776 187.026 61.0535 186.975 61.1167 186.912C61.18 186.849 61.2305 186.76 61.2811 186.647C61.3317 186.533 61.3444 186.406 61.3444 186.255C61.3444 186.115 61.3317 185.976 61.3064 185.862C61.2811 185.749 61.2305 185.647 61.1673 185.572C61.1041 185.483 61.0155 185.42 60.9143 185.382C60.8132 185.344 60.6867 185.319 60.5223 185.319H60.0796V187.102H60.6361H60.6234ZM60.6614 184.787C60.8385 184.787 61.0155 184.813 61.1673 184.876C61.3191 184.939 61.4582 185.028 61.572 185.141C61.6859 185.255 61.7744 185.407 61.8377 185.584C61.9009 185.761 61.9388 185.964 61.9388 186.204C61.9388 186.406 61.9135 186.596 61.863 186.773C61.8124 186.95 61.7238 187.102 61.6226 187.228C61.5215 187.355 61.3823 187.456 61.2179 187.532C61.0535 187.608 60.8638 187.646 60.6487 187.646H59.4219V184.813H60.6487L60.6614 184.787Z" fill="#545859"/>
<path d="M63.5651 184.787H62.9453V187.62H63.5651V184.787Z" fill="#545859"/>
<path d="M64.4258 184.787V185.319H65.2732V187.633H65.893V185.319H66.7404V184.787H64.4258Z" fill="#545859"/>
<path d="M67.625 184.787V187.633H69.7752V187.102H68.2448V186.406H69.6234V185.926H68.2448V185.319H69.7499V184.787H67.625Z" fill="#545859"/>
<path d="M71.9164 187.102C72.0049 187.102 72.0935 187.09 72.182 187.052C72.2706 187.027 72.3464 186.976 72.4097 186.913C72.4729 186.849 72.5235 186.761 72.5741 186.647C72.6247 186.533 72.6373 186.407 72.6373 186.255C72.6373 186.116 72.6247 185.977 72.5994 185.863C72.5741 185.749 72.5235 185.648 72.4603 185.572C72.397 185.483 72.3085 185.42 72.2073 185.382C72.1061 185.344 71.9796 185.319 71.8152 185.319H71.3725V187.102H71.9291H71.9164ZM71.9544 184.788C72.1314 184.788 72.3085 184.813 72.4603 184.876C72.6121 184.94 72.7512 185.028 72.865 185.142C72.9788 185.256 73.0674 185.408 73.1306 185.585C73.1939 185.762 73.2318 185.964 73.2318 186.204C73.2318 186.407 73.2065 186.596 73.1559 186.774C73.1053 186.951 73.0168 187.102 72.9156 187.229C72.8144 187.355 72.6753 187.457 72.5109 187.532C72.3464 187.608 72.1567 187.646 71.9417 187.646H70.7148V184.813H71.9417L71.9544 184.788Z" fill="#545859"/>
<path d="M47.7698 182.891H42.3438L43.8742 175.505H49.2749L49.0219 176.706H44.9745L44.5951 178.515H48.3516L48.1239 179.653H44.3548L43.9374 181.69H48.0227L47.7698 182.891Z" fill="#992140"/>
<path d="M52.9834 176.466C52.5534 176.466 52.1866 176.567 51.8704 176.757C51.5542 176.947 51.2886 177.212 51.0735 177.516C50.8585 177.832 50.7067 178.186 50.5929 178.578C50.4917 178.97 50.4285 179.375 50.4285 179.78C50.4285 180.45 50.5929 180.969 50.9344 181.348C51.2759 181.727 51.7565 181.917 52.3763 181.917C52.6293 181.917 52.8696 181.879 53.0846 181.791L52.4269 181.108L53.2111 180.399L53.9573 181.196C54.2482 180.88 54.4759 180.501 54.6277 180.045C54.7794 179.577 54.868 179.097 54.868 178.603C54.868 177.933 54.7035 177.415 54.3873 177.035C54.0711 176.656 53.5905 176.466 52.9708 176.466M54.8553 183.65L53.9573 182.701C53.464 182.929 52.9075 183.043 52.3384 183.043C51.8071 183.043 51.3392 182.954 50.9344 182.79C50.5297 182.625 50.1882 182.398 49.9099 182.107C49.6317 181.816 49.4166 181.474 49.2775 181.082C49.1384 180.69 49.0625 180.26 49.0625 179.818C49.0625 179.059 49.1763 178.376 49.404 177.819C49.6317 177.25 49.9352 176.782 50.3147 176.415C50.6815 176.049 51.1115 175.77 51.5795 175.593C52.0474 175.416 52.5281 175.328 53.0087 175.328C53.4893 175.328 53.932 175.404 54.3367 175.568C54.7415 175.72 55.083 175.947 55.3612 176.238C55.6395 176.529 55.8545 176.871 56.0189 177.263C56.1707 177.655 56.2466 178.098 56.2466 178.565C56.2466 179.413 56.1201 180.134 55.8545 180.728C55.6016 181.297 55.2727 181.765 54.8553 182.132L55.6395 182.954L54.8553 183.663V183.65Z" fill="#992140"/>
<path d="M59.7242 183.056C59.3574 183.056 59.0159 183.005 58.687 182.917C58.3582 182.828 58.0673 182.676 57.8143 182.499C57.5613 182.309 57.359 182.069 57.2199 181.791C57.0681 181.5 56.9922 181.158 56.9922 180.779C56.9922 180.602 56.9922 180.438 57.0301 180.273C57.0554 180.109 57.0807 179.944 57.1187 179.78L58.0293 175.505H59.3953L58.4467 180.02C58.4214 180.109 58.4088 180.21 58.3961 180.311C58.3835 180.412 58.3708 180.513 58.3708 180.615C58.3708 180.855 58.3961 181.045 58.472 181.209C58.5479 181.361 58.6491 181.5 58.7882 181.588C58.9273 181.69 59.0918 181.753 59.2688 181.804C59.4586 181.841 59.6609 181.867 59.8759 181.867C60.1163 181.867 60.3439 181.841 60.5463 181.791C60.7487 181.74 60.9257 181.639 61.0902 181.513C61.2546 181.373 61.3937 181.196 61.5202 180.956C61.6467 180.716 61.7479 180.412 61.8364 180.045L62.7977 175.518H64.1636L63.1897 180.147C63.1265 180.45 63.038 180.766 62.9241 181.108C62.8103 181.449 62.6206 181.778 62.3676 182.056C62.1147 182.347 61.7732 182.588 61.3558 182.777C60.9384 182.967 60.3819 183.068 59.7242 183.068" fill="#992140"/>
<path d="M65.4051 182.891H64.0391L64.0517 182.828L65.5821 175.505H66.9481L66.9355 175.568L65.4051 182.891Z" fill="#992140"/>
<path d="M69.7713 183.056C69.3413 183.056 68.9492 183.005 68.5951 182.904C68.2409 182.803 67.9374 182.651 67.697 182.436C67.4567 182.221 67.267 181.943 67.1279 181.614C67.0014 181.285 66.9382 180.881 66.9508 180.425V180.375H68.2662V180.425C68.2409 180.969 68.3674 181.361 68.6583 181.576C68.9492 181.804 69.3666 181.918 69.8852 181.918C70.0496 181.918 70.2267 181.892 70.4164 181.854C70.6061 181.817 70.7705 181.753 70.9223 181.665C71.0741 181.576 71.2006 181.462 71.3017 181.323C71.4029 181.184 71.4535 181.007 71.4535 180.805C71.4535 180.615 71.4029 180.451 71.3144 180.324C71.2259 180.198 71.0994 180.084 70.9476 179.995C70.7958 179.907 70.6061 179.831 70.4037 179.768C70.1887 179.704 69.9737 179.641 69.746 179.578C69.5816 179.54 69.3919 179.477 69.1642 179.413C68.9366 179.338 68.7089 179.236 68.4939 179.097C68.2789 178.958 68.0891 178.768 67.95 178.541C67.7982 178.313 67.7223 178.01 67.7223 177.655C67.7223 177.327 67.7856 177.01 67.9121 176.732C68.0385 176.454 68.2156 176.201 68.4559 175.999C68.6962 175.796 68.9871 175.632 69.3286 175.518C69.6701 175.404 70.0622 175.341 70.4923 175.341C70.8717 175.341 71.2385 175.379 71.58 175.467C71.9215 175.556 72.2124 175.682 72.4654 175.872C72.7183 176.062 72.9081 176.302 73.0472 176.606C73.1863 176.909 73.2495 177.276 73.2369 177.719V177.769H71.9215V177.719C71.9215 177.276 71.795 176.96 71.5547 176.77C71.3144 176.58 70.9602 176.479 70.467 176.479C70.3784 176.479 70.2646 176.479 70.1002 176.504C69.9484 176.53 69.7966 176.568 69.6448 176.644C69.4931 176.719 69.3666 176.821 69.2528 176.947C69.1389 177.074 69.0883 177.263 69.0883 177.491C69.0883 177.655 69.1263 177.795 69.2022 177.896C69.2781 178.01 69.3919 178.098 69.5184 178.174C69.6575 178.25 69.8093 178.326 69.9863 178.376C70.1634 178.427 70.3658 178.477 70.5682 178.528C70.8338 178.591 71.0994 178.68 71.3523 178.756C71.6179 178.844 71.8583 178.958 72.0733 179.11C72.2883 179.262 72.478 179.464 72.6045 179.704C72.7436 179.945 72.8069 180.273 72.8069 180.653C72.8069 180.944 72.7563 181.235 72.6424 181.513C72.5286 181.791 72.3515 182.057 72.1112 182.285C71.8709 182.512 71.5421 182.702 71.1626 182.841C70.7705 182.98 70.3025 183.056 69.746 183.056" fill="#992140"/>
<defs>
<linearGradient id="paint0_linear_7323_106061" x1="138.389" y1="178.501" x2="138.389" y2="173.145" gradientUnits="userSpaceOnUse">
<stop stop-color="#74ADAF"/>
<stop offset="0.2" stop-color="#7EAFA6"/>
<stop offset="0.55" stop-color="#99B591"/>
<stop offset="1" stop-color="#C7BF6E"/>
</linearGradient>
<linearGradient id="paint1_linear_7323_106061" x1="143.74" y1="183.75" x2="143.74" y2="178.501" gradientUnits="userSpaceOnUse">
<stop stop-color="#465E81"/>
<stop offset="1" stop-color="#74ADAF"/>
</linearGradient>
<linearGradient id="paint2_linear_7323_106061" x1="141.782" y1="183.49" x2="146.269" y2="183.49" gradientUnits="userSpaceOnUse">
<stop stop-color="#465E81"/>
<stop offset="0.85" stop-color="#9E587B"/>
<stop offset="1" stop-color="#9E587B"/>
</linearGradient>
<linearGradient id="paint3_linear_7323_106061" x1="136.301" y1="180.758" x2="141.657" y2="180.758" gradientUnits="userSpaceOnUse">
<stop stop-color="#465E81"/>
<stop offset="1" stop-color="#74ADAF"/>
</linearGradient>
<linearGradient id="paint4_linear_7323_106061" x1="136.227" y1="177.516" x2="138.75" y2="177.516" gradientUnits="userSpaceOnUse">
<stop stop-color="#DFAA68"/>
<stop offset="0.48" stop-color="#D6D8DA"/>
<stop offset="1" stop-color="#D6D8DA"/>
</linearGradient>
<linearGradient id="paint5_linear_7323_106061" x1="132.974" y1="183.947" x2="132.974" y2="179.46" gradientUnits="userSpaceOnUse">
<stop stop-color="#465E81"/>
<stop offset="0.85" stop-color="#9E587B"/>
<stop offset="1" stop-color="#9E587B"/>
</linearGradient>
<linearGradient id="paint6_linear_7323_106061" x1="138.927" y1="178.5" x2="138.927" y2="173.144" gradientUnits="userSpaceOnUse">
<stop stop-color="#94BEC0"/>
<stop offset="0.25" stop-color="#9EC0B7"/>
<stop offset="0.69" stop-color="#BAC69F"/>
<stop offset="1" stop-color="#D2CC8C"/>
</linearGradient>
<linearGradient id="paint7_linear_7323_106061" x1="136.46" y1="178.5" x2="136.46" y2="173.144" gradientUnits="userSpaceOnUse">
<stop stop-color="#A3C6C7"/>
<stop offset="0.29" stop-color="#ADC8BD"/>
<stop offset="0.8" stop-color="#CACEA5"/>
<stop offset="1" stop-color="#D7D19B"/>
</linearGradient>
<linearGradient id="paint8_linear_7323_106061" x1="134.196" y1="183.82" x2="134.196" y2="179.333" gradientUnits="userSpaceOnUse">
<stop stop-color="#465E81"/>
<stop offset="0.85" stop-color="#9E587B"/>
<stop offset="1" stop-color="#9E587B"/>
</linearGradient>
<linearGradient id="paint9_linear_7323_106061" x1="134.072" y1="183.934" x2="134.072" y2="179.447" gradientUnits="userSpaceOnUse">
<stop stop-color="#7A88A7"/>
<stop offset="0.85" stop-color="#BA8CA2"/>
<stop offset="1" stop-color="#BA8CA2"/>
</linearGradient>
<linearGradient id="paint10_linear_7323_106061" x1="137.103" y1="178.501" x2="137.103" y2="173.144" gradientUnits="userSpaceOnUse">
<stop stop-color="#C0D7D8"/>
<stop offset="0.4" stop-color="#CAD9CF"/>
<stop offset="1" stop-color="#E3DEBB"/>
</linearGradient>
<linearGradient id="paint11_linear_7323_106061" x1="136.227" y1="176.332" x2="138.75" y2="176.332" gradientUnits="userSpaceOnUse">
<stop stop-color="#E9C797"/>
<stop offset="0.48" stop-color="#EAECED"/>
<stop offset="1" stop-color="#EAECED"/>
</linearGradient>
<linearGradient id="paint12_linear_7323_106061" x1="136.23" y1="176.384" x2="138.752" y2="176.384" gradientUnits="userSpaceOnUse">
<stop stop-color="#EFD8B8"/>
<stop offset="0.48" stop-color="#EAECED"/>
<stop offset="1" stop-color="#EAECED"/>
</linearGradient>
<linearGradient id="paint13_linear_7323_106061" x1="136.303" y1="178.401" x2="141.66" y2="178.401" gradientUnits="userSpaceOnUse">
<stop stop-color="#A0AAC2"/>
<stop offset="1" stop-color="#C0D7D8"/>
</linearGradient>
<linearGradient id="paint14_linear_7323_106061" x1="141.592" y1="174.272" x2="147.223" y2="173.38" gradientUnits="userSpaceOnUse">
<stop stop-color="#D6D8DA"/>
<stop offset="0.17" stop-color="#D4D5CF"/>
<stop offset="0.46" stop-color="#D0CEB2"/>
<stop offset="0.83" stop-color="#CAC484"/>
<stop offset="1" stop-color="#C7BF6E"/>
</linearGradient>
<linearGradient id="paint15_linear_7323_106061" x1="141.579" y1="174.274" x2="147.211" y2="173.382" gradientUnits="userSpaceOnUse">
<stop stop-color="#DEE0E2"/>
<stop offset="0.2" stop-color="#DCDDD7"/>
<stop offset="0.55" stop-color="#D8D6BA"/>
<stop offset="1" stop-color="#D2CC8C"/>
</linearGradient>
<linearGradient id="paint16_linear_7323_106061" x1="141.899" y1="176.344" x2="147.53" y2="175.452" gradientUnits="userSpaceOnUse">
<stop stop-color="#EAECED"/>
<stop offset="0.29" stop-color="#E8E9E3"/>
<stop offset="0.79" stop-color="#E4E1C8"/>
<stop offset="1" stop-color="#E3DEBB"/>
</linearGradient>
<linearGradient id="paint17_linear_7323_106061" x1="141.829" y1="175.887" x2="147.461" y2="174.995" gradientUnits="userSpaceOnUse">
<stop stop-color="#E3E4E5"/>
<stop offset="0.22" stop-color="#E1E1DA"/>
<stop offset="0.6" stop-color="#DCDABF"/>
<stop offset="1" stop-color="#D7D19B"/>
</linearGradient>
<linearGradient id="paint18_linear_7323_106061" x1="145.568" y1="183.75" x2="145.568" y2="178.501" gradientUnits="userSpaceOnUse">
<stop stop-color="#7A88A7"/>
<stop offset="1" stop-color="#A3C6C7"/>
</linearGradient>
<linearGradient id="paint19_linear_7323_106061" x1="143.097" y1="183.75" x2="143.097" y2="178.501" gradientUnits="userSpaceOnUse">
<stop stop-color="#A0AAC2"/>
<stop offset="1" stop-color="#C0D7D8"/>
</linearGradient>
<linearGradient id="paint20_linear_7323_106061" x1="145.026" y1="183.749" x2="145.026" y2="178.5" gradientUnits="userSpaceOnUse">
<stop stop-color="#B8BFD2"/>
<stop offset="1" stop-color="#D2E2E3"/>
</linearGradient>
</defs>
</svg>
