<svg width="40" height="24" viewBox="0 0 40 24" fill="none" xmlns="http://www.w3.org/2000/svg">
<rect opacity="0.1" width="40" height="24" rx="5" fill="white"/>
<path d="M9.53592 17H11.5609V9.44H14.2609V7.55H6.83592V9.44H9.53592V17ZM14.6021 17H16.4246V13.895C16.4246 12.815 17.0996 12.14 17.9771 12.14C18.3821 12.14 18.5846 12.2075 18.5846 12.2075V10.25H18.4496C17.1671 10.25 16.4921 11.33 16.4921 11.33H16.4246V10.385H14.6021V17ZM19.7305 17H21.553V10.385H19.7305V17ZM20.635 9.5075C21.2155 9.5075 21.688 9.035 21.688 8.495C21.688 7.955 21.2155 7.4825 20.6485 7.4825C20.068 7.4825 19.5955 7.955 19.5955 8.495C19.5955 9.035 20.068 9.5075 20.635 9.5075ZM24.9908 17.135C26.2733 17.135 26.9483 16.19 26.9483 16.19H27.0158V17C27.4208 17 28.8383 17 28.8383 17V12.8825C28.8383 11.3975 27.6908 10.25 26.0033 10.25C24.2483 10.25 23.3033 11.5325 23.3033 11.5325L24.3833 12.6125C24.3833 12.6125 24.9233 11.87 25.8683 11.87C26.5433 11.87 26.9483 12.275 27.0158 12.7475L24.9233 13.1255C23.7083 13.3415 22.9658 14.165 22.9658 15.245C22.9658 16.325 23.7758 17.135 24.9908 17.135ZM25.5983 15.65C25.0583 15.65 24.7883 15.38 24.7883 14.975C24.7883 14.6375 25.0583 14.381 25.5308 14.3L27.0158 14.03V14.165C27.0158 15.0425 26.4083 15.65 25.5983 15.65ZM30.6613 17H32.4838V7.55H30.6613V17Z" fill="white"/>
</svg>
