<svg width="40" height="24" viewBox="0 0 40 24" fill="none" xmlns="http://www.w3.org/2000/svg">
<rect opacity="0.1" width="40" height="24" rx="5" fill="white"/>
<path d="M13.9574 17H15.9824V7.55H13.9574V17ZM22.936 17.2025C25.636 17.2025 26.986 15.3125 26.986 15.3125L25.636 13.9625C25.636 13.9625 24.691 15.3125 22.936 15.3125C21.2485 15.3125 19.8985 13.9625 19.8985 12.275C19.8985 10.5875 21.2485 9.2375 22.936 9.2375C24.6235 9.2375 25.5685 10.5875 25.5685 10.5875L26.9185 9.2375C26.9185 9.2375 25.5685 7.3475 22.936 7.3475C20.0335 7.3475 17.806 9.575 17.806 12.275C17.806 14.975 20.0335 17.2025 22.936 17.2025Z" fill="white"/>
</svg>
