<svg width="61" height="25" viewBox="0 0 61 25" fill="none" xmlns="http://www.w3.org/2000/svg">
<rect width="61" height="25" rx="5" fill="white" fill-opacity="0.1"/>
<path d="M9.67203 17V7.55H11.4945L14.7345 11.6L17.9745 7.55H19.797V17H17.772V10.79L14.7345 14.57L11.697 10.79V17H9.67203ZM23.5728 17.135C22.3578 17.135 21.5478 16.325 21.5478 15.245C21.5478 14.165 22.2903 13.3415 23.5053 13.1255L25.5978 12.7475C25.5303 12.275 25.1253 11.87 24.4503 11.87C23.5053 11.87 22.9653 12.6125 22.9653 12.6125L21.8853 11.5325C21.8853 11.5325 22.8303 10.25 24.5853 10.25C26.2728 10.25 27.4203 11.3975 27.4203 12.8825V17C27.4203 17 26.0028 17 25.5978 17V16.19H25.5303C25.5303 16.19 24.8553 17.135 23.5728 17.135ZM24.1803 15.65C24.9903 15.65 25.5978 15.0425 25.5978 14.165V14.03L24.1128 14.3C23.6403 14.381 23.3703 14.6375 23.3703 14.975C23.3703 15.38 23.6403 15.65 24.1803 15.65ZM31.3358 17.135C29.5133 17.135 28.5008 15.92 28.5008 15.92L29.5808 14.7725C29.5808 14.7725 30.2558 15.515 31.3358 15.515C31.9433 15.515 32.1458 15.3125 32.1458 15.0425C32.1458 14.3 28.7708 14.435 28.7708 12.275C28.7708 11.195 29.7158 10.25 31.4033 10.25C33.0908 10.25 33.9683 11.2625 33.9683 11.2625L32.8883 12.41C32.8883 12.41 32.3483 11.87 31.4033 11.87C30.9308 11.87 30.7283 12.0725 30.7283 12.275C30.7283 13.0175 34.1033 12.8825 34.1033 15.0425C34.1033 16.19 33.1583 17.135 31.3358 17.135ZM38.0869 17.135C36.7369 17.135 35.8594 16.2575 35.8594 14.705V12.2075H34.7119V10.52H35.3194C35.7919 10.52 36.0619 10.25 36.0619 9.71V8.495H37.6819V10.52H39.1669V12.2075H37.6819V14.435C37.6819 15.0425 38.0194 15.38 38.5594 15.38C38.9644 15.38 39.3019 15.245 39.3019 15.245V16.9325C39.3019 16.9325 38.7619 17.135 38.0869 17.135ZM43.6978 17.135C41.7403 17.135 40.1878 15.5825 40.1878 13.6925C40.1878 11.8025 41.7403 10.25 43.6303 10.25C45.4528 10.25 46.9378 11.735 46.9378 13.5575C46.9378 14.03 46.8703 14.3675 46.8703 14.3675H42.0778C42.2803 14.975 42.8203 15.515 43.8328 15.515C44.9803 15.515 45.5878 14.7725 45.5878 14.7725L46.5328 16.055C46.5328 16.055 45.5203 17.135 43.6978 17.135ZM42.0778 13.0175H45.0478C44.8453 12.41 44.3053 11.87 43.5628 11.87C42.8203 11.87 42.2803 12.41 42.0778 13.0175ZM48.2921 17V10.385H50.1146V11.33H50.1821C50.1821 11.33 50.8571 10.25 52.1396 10.25H52.2746V12.2075C52.2746 12.2075 52.0721 12.14 51.6671 12.14C50.7896 12.14 50.1146 12.815 50.1146 13.895V17H48.2921Z" fill="white"/>
</svg>
