<svg width="40" height="40" viewBox="0 0 40 40" fill="none" xmlns="http://www.w3.org/2000/svg">
<path fill-rule="evenodd" clip-rule="evenodd" d="M0 20C0 8.95431 8.95431 0 20 0C31.0457 0 40 8.95431 40 20C40 31.0457 31.0457 40 20 40C8.95431 40 0 31.0457 0 20Z" fill="#F4F6F8"/>
<path d="M23.2503 13.0416H25.2087V9.72912C24.2605 9.63052 23.3078 9.58184 22.3545 9.58328C19.5212 9.58328 17.5837 11.3124 17.5837 14.4791V17.2083H14.3857V20.9166H17.5837V30.4166H21.417V20.9166H24.6045L25.0837 17.2083H21.417V14.8437C21.417 13.75 21.7087 13.0416 23.2503 13.0416Z" fill="#192024"/>
</svg>
