<svg width="40" height="40" viewBox="0 0 40 40" fill="none" xmlns="http://www.w3.org/2000/svg">
<path fill-rule="evenodd" clip-rule="evenodd" d="M0 20C0 8.95431 8.95431 0 20 0C31.0457 0 40 8.95431 40 20C40 31.0457 31.0457 40 20 40C8.95431 40 0 31.0457 0 20Z" fill="#F4F6F8"/>
<path fill-rule="evenodd" clip-rule="evenodd" d="M20.0007 9.33337C17.1038 9.33337 16.7402 9.34604 15.6024 9.39782C14.4668 9.44982 13.6917 9.6296 13.0135 9.89338C12.3119 10.1658 11.7168 10.5303 11.1239 11.1234C10.5306 11.7163 10.1661 12.3114 9.89279 13.0127C9.62834 13.6912 9.44834 14.4665 9.39723 15.6017C9.34634 16.7395 9.33301 17.1032 9.33301 20.0002C9.33301 22.8971 9.3459 23.2595 9.39745 24.3973C9.44968 25.5329 9.62946 26.308 9.89301 26.9862C10.1657 27.6878 10.5301 28.2829 11.1232 28.8758C11.7159 29.4691 12.311 29.8345 13.0122 30.1069C13.6908 30.3707 14.4662 30.5505 15.6015 30.6025C16.7393 30.6543 17.1026 30.6669 19.9993 30.6669C22.8965 30.6669 23.2589 30.6543 24.3967 30.6025C25.5323 30.5505 26.3083 30.3707 26.987 30.1069C27.6883 29.8345 28.2825 29.4691 28.8752 28.8758C29.4686 28.2829 29.833 27.6878 30.1063 26.9864C30.3686 26.308 30.5486 25.5327 30.6019 24.3975C30.653 23.2597 30.6663 22.8971 30.6663 20.0002C30.6663 17.1032 30.653 16.7397 30.6019 15.6019C30.5486 14.4663 30.3686 13.6912 30.1063 13.013C29.833 12.3114 29.4686 11.7163 28.8752 11.1234C28.2819 10.5301 27.6885 10.1656 26.9863 9.89338C26.3063 9.6296 25.5307 9.44982 24.3952 9.39782C23.2574 9.34604 22.8952 9.33337 19.9973 9.33337H20.0007ZM19.0437 11.2556C19.3277 11.2551 19.6446 11.2556 20.0006 11.2556C22.8487 11.2556 23.1862 11.2658 24.3109 11.3169C25.3509 11.3645 25.9154 11.5383 26.2914 11.6843C26.7891 11.8776 27.144 12.1087 27.5172 12.482C27.8905 12.8554 28.1216 13.2109 28.3154 13.7087C28.4614 14.0843 28.6354 14.6487 28.6827 15.6887C28.7338 16.8132 28.7449 17.151 28.7449 19.9977C28.7449 22.8444 28.7338 23.1822 28.6827 24.3066C28.6352 25.3466 28.4614 25.9111 28.3154 26.2866C28.122 26.7844 27.8905 27.1389 27.5172 27.512C27.1438 27.8853 26.7894 28.1164 26.2914 28.3098C25.9158 28.4564 25.3509 28.6298 24.3109 28.6773C23.1864 28.7284 22.8487 28.7395 20.0006 28.7395C17.1524 28.7395 16.8148 28.7284 15.6904 28.6773C14.6504 28.6293 14.0859 28.4555 13.7097 28.3095C13.2119 28.1162 12.8563 27.8851 12.483 27.5118C12.1097 27.1384 11.8785 26.7837 11.6848 26.2857C11.5388 25.9102 11.3648 25.3457 11.3174 24.3057C11.2663 23.1813 11.2561 22.8435 11.2561 19.995C11.2561 17.1465 11.2663 16.8105 11.3174 15.6861C11.365 14.6461 11.5388 14.0816 11.6848 13.7056C11.8781 13.2078 12.1097 12.8523 12.483 12.4789C12.8563 12.1056 13.2119 11.8745 13.7097 11.6807C14.0857 11.534 14.6504 11.3607 15.6904 11.3129C16.6744 11.2685 17.0557 11.2551 19.0437 11.2529V11.2556ZM25.6945 13.0267C24.9878 13.0267 24.4145 13.5994 24.4145 14.3063C24.4145 15.013 24.9878 15.5863 25.6945 15.5863C26.4011 15.5863 26.9745 15.013 26.9745 14.3063C26.9745 13.5996 26.4011 13.0267 25.6945 13.0267ZM20.0007 14.5223C16.9756 14.5223 14.5229 16.975 14.5229 20.0001C14.5229 23.0253 16.9756 25.4768 20.0007 25.4768C23.0258 25.4768 25.4776 23.0253 25.4776 20.0001C25.4776 16.975 23.0258 14.5223 20.0007 14.5223ZM20.0007 16.4445C21.9642 16.4445 23.5562 18.0363 23.5562 20.0001C23.5562 21.9637 21.9642 23.5557 20.0007 23.5557C18.0369 23.5557 16.4451 21.9637 16.4451 20.0001C16.4451 18.0363 18.0369 16.4445 20.0007 16.4445Z" fill="#192024"/>
</svg>
