<svg width="47" height="46" viewBox="0 0 47 46" fill="none" xmlns="http://www.w3.org/2000/svg">
<path d="M29.125 0H23.0341C20.7462 0 18.5819 0.893503 16.9432 2.49565C15.3355 4.09779 14.4388 6.28533 14.4388 8.5653V17.716H8.59529C6.30734 17.716 4.14305 18.6095 2.50438 20.2117C0.896632 21.8138 0 24.0013 0 26.2813V32.351C22.323 34.0764 30.7328 20.2425 29.125 0ZM19.1384 46H24.2399C26.1569 46 27.9811 45.2297 29.3415 43.9049C30.7019 42.5492 31.4439 40.7314 31.4439 38.8212V33.9531H39.1426C41.0595 33.9531 42.8837 33.1829 44.2441 31.858C45.6045 30.5023 46.3465 28.6845 46.3465 26.7743V21.6906C29.3105 20.3349 17.6853 27.3597 19.1384 46Z" fill="#8056F3"/>
</svg>
