<svg width="40" height="40" viewBox="0 0 40 40" fill="none" xmlns="http://www.w3.org/2000/svg">
<path fill-rule="evenodd" clip-rule="evenodd" d="M0 20C0 8.95431 8.95431 0 20 0C31.0457 0 40 8.95431 40 20C40 31.0457 31.0457 40 20 40C8.95431 40 0 31.0457 0 20Z" fill="#F4F6F8"/>
<path d="M27.941 10.625H12.0598C11.8812 10.6225 11.704 10.6552 11.5381 10.7213C11.3722 10.7873 11.221 10.8854 11.093 11.0099C10.965 11.1344 10.8628 11.2828 10.7923 11.4468C10.7217 11.6108 10.6841 11.7871 10.6816 11.9656V28.0344C10.6841 28.2129 10.7217 28.3892 10.7923 28.5532C10.8628 28.7172 10.965 28.8657 11.093 28.9902C11.221 29.1146 11.3722 29.2127 11.5381 29.2787C11.704 29.3448 11.8812 29.3775 12.0598 29.375H27.941C28.1195 29.3775 28.2968 29.3448 28.4627 29.2787C28.6285 29.2127 28.7798 29.1146 28.9078 28.9902C29.0357 28.8657 29.1379 28.7172 29.2085 28.5532C29.2791 28.3892 29.3167 28.2129 29.3191 28.0344V11.9656C29.3167 11.7871 29.2791 11.6108 29.2085 11.4468C29.1379 11.2828 29.0357 11.1344 28.9078 11.0099C28.7798 10.8854 28.6285 10.7873 28.4627 10.7213C28.2968 10.6552 28.1195 10.6225 27.941 10.625V10.625ZM16.3348 26.3188H13.5223V17.8813H16.3348V26.3188ZM14.9285 16.7C14.5406 16.7 14.1686 16.5459 13.8944 16.2717C13.6201 15.9974 13.466 15.6254 13.466 15.2375C13.466 14.8496 13.6201 14.4776 13.8944 14.2034C14.1686 13.9291 14.5406 13.775 14.9285 13.775C15.1345 13.7517 15.3431 13.7721 15.5406 13.8349C15.7381 13.8977 15.9201 14.0016 16.0748 14.1397C16.2294 14.2777 16.3531 14.4469 16.4378 14.6361C16.5225 14.8253 16.5663 15.0302 16.5663 15.2375C16.5663 15.4448 16.5225 15.6497 16.4378 15.8389C16.3531 16.0281 16.2294 16.1973 16.0748 16.3354C15.9201 16.4734 15.7381 16.5773 15.5406 16.6401C15.3431 16.703 15.1345 16.7234 14.9285 16.7V16.7ZM26.4785 26.3188H23.666V21.7906C23.666 20.6563 23.2629 19.9156 22.241 19.9156C21.9248 19.9179 21.6168 20.0171 21.3587 20.1999C21.1005 20.3826 20.9046 20.64 20.7973 20.9375C20.7239 21.1579 20.6921 21.3899 20.7035 21.6219V26.3094H17.891C17.891 26.3094 17.891 18.6406 17.891 17.8719H20.7035V19.0625C20.959 18.6192 21.3306 18.2539 21.7783 18.0061C22.226 17.7583 22.7328 17.6374 23.2441 17.6563C25.1191 17.6563 26.4785 18.8656 26.4785 21.4625V26.3188Z" fill="#192024"/>
</svg>
