<svg width="48" height="25" viewBox="0 0 48 25" fill="none" xmlns="http://www.w3.org/2000/svg">
<rect width="48" height="25" rx="5" fill="white" fill-opacity="0.1"/>
<path d="M9.55289 17V7.55H11.3754L14.6154 11.6L17.8554 7.55H19.6779V17H17.6529V10.79L14.6154 14.57L11.5779 10.79V17H9.55289ZM22.1037 17V7.55H26.0862C27.9762 7.55 29.1237 8.6975 29.1237 10.0475C29.1237 11.5325 27.8412 12.005 27.8412 12.005C27.8412 12.005 29.5962 12.4775 29.5962 14.3C29.5962 15.785 28.3812 17 26.3562 17H22.1037ZM24.1287 15.245H26.2212C27.0312 15.245 27.5037 14.7725 27.5037 14.0975C27.5037 13.4225 27.0312 12.95 26.2212 12.95H24.1287V15.245ZM24.1287 11.195H25.9512C26.6262 11.195 27.0312 10.79 27.0312 10.25C27.0312 9.71 26.6262 9.305 25.9512 9.305H24.1287V11.195ZM30.0133 17L33.6583 7.55H35.9533L39.5983 17H37.4383L36.6283 14.84H32.9833L32.1733 17H30.0133ZM33.6583 13.0175H35.9533L34.8328 9.9125H34.7788L33.6583 13.0175Z" fill="white"/>
</svg>
