<svg width="207" height="88" viewBox="0 0 207 88" fill="none" xmlns="http://www.w3.org/2000/svg">
<g clip-path="url(#clip0_8921_51064)">
<path d="M9.93009 65.2494C5.38645 65.2494 2.38177 62.2552 2.38177 58.2386V49.1465H6.88878V57.983C6.88878 59.8087 8.24455 61.0502 9.89345 61.0502C11.5424 61.0502 12.8981 59.8087 12.8981 57.983V49.1465H17.4051V58.2386C17.4784 62.2187 14.5104 65.2494 9.93009 65.2494Z" fill="#192024"/>
<path d="M33.4911 22.4556H37.8515V24.7195H37.9981C37.9981 24.7195 39.2806 22.127 42.3585 22.127C45.7663 22.127 47.0487 24.8655 47.0487 24.8655H47.1953C47.1953 24.8655 48.9908 22.127 52.3619 22.127C55.4398 22.127 57.8582 24.5369 57.8582 28.4075V38.2299H53.4978V29.1743C53.4978 27.385 52.5451 26.1801 50.8962 26.1801C49.1007 26.1801 47.8182 27.3485 47.8182 29.2838V38.2299H43.4578V29.1743C43.4578 27.385 42.5051 26.1801 40.8562 26.1801C39.0607 26.1801 37.7782 27.3485 37.7782 29.2838V38.2299H33.4911V22.4556Z" fill="#192024"/>
<path d="M61.0461 30.3427C61.0461 25.5228 64.4538 22.127 69.4372 22.127C74.4572 22.127 77.8283 25.5228 77.8283 30.3427C77.8283 35.1626 74.4205 38.5585 69.4372 38.5585C64.4172 38.5585 61.0461 35.1626 61.0461 30.3427ZM73.5045 30.3062C73.5045 27.8962 71.7456 26.1436 69.4372 26.1436C67.1287 26.1436 65.3699 27.9328 65.3699 30.3427C65.3699 32.7527 67.1287 34.5419 69.4372 34.5419C71.7823 34.5054 73.5045 32.7162 73.5045 30.3062Z" fill="#192024"/>
<path d="M104.101 30.3427C104.101 25.5228 107.509 22.127 112.492 22.127C117.512 22.127 120.883 25.5228 120.883 30.3427C120.883 35.1626 117.475 38.5585 112.492 38.5585C107.472 38.5585 104.101 35.1626 104.101 30.3427ZM116.559 30.3062C116.559 27.8962 114.8 26.1436 112.492 26.1436C110.183 26.1436 108.425 27.9328 108.425 30.3427C108.425 32.7527 110.183 34.5419 112.492 34.5419C114.837 34.5054 116.559 32.7162 116.559 30.3062Z" fill="#192024"/>
<path d="M13.8508 30.3427C13.8508 25.5228 17.2586 22.127 22.2419 22.127C27.2619 22.127 30.633 25.5228 30.633 30.3427C30.633 35.1626 27.2253 38.5585 22.2419 38.5585C17.2586 38.5585 13.8508 35.1626 13.8508 30.3427ZM26.3459 30.3062C26.3459 27.8962 24.587 26.1436 22.2786 26.1436C19.9701 26.1436 18.2113 27.9328 18.2113 30.3427C18.2113 32.7527 19.9701 34.5419 22.2786 34.5419C24.6237 34.5054 26.3459 32.7162 26.3459 30.3062Z" fill="#192024"/>
<path d="M81.0895 22.4556H85.4499V24.7195H85.5965C85.5965 24.7195 87.2087 22.127 90.2867 22.127H90.6165V26.8008C90.6165 26.8008 90.1401 26.6548 89.1508 26.6548C87.0622 26.6548 85.4499 27.7867 85.4499 30.3792V38.2664H81.0895V22.4556V22.4556Z" fill="#192024"/>
<path d="M93.3646 22.4556H97.7251V24.7195H97.8716C97.8716 24.7195 99.4839 22.127 102.562 22.127H102.892V26.8008C102.892 26.8008 102.415 26.6548 101.426 26.6548C99.3373 26.6548 97.7251 27.7867 97.7251 30.3792V38.2664H93.3646V22.4556V22.4556Z" fill="#192024"/>
<path d="M121.653 22.4551H126.343L129.237 31.8028H129.384L132.462 22.4551H136.016L139.094 31.8028H139.241L142.136 22.4551H146.826L141.256 38.2293H137.262L134.257 29.0277H134.111L131.106 38.2293H127.112L121.653 22.4551Z" fill="#192024"/>
<path d="M21.4358 49.147H25.7962V51.4109H25.9428C25.9428 51.4109 27.5551 48.8184 30.633 48.8184C33.8575 48.8184 36.4591 51.0457 36.4591 55.0623V64.9213H32.0987V56.0482C32.0987 54.113 30.9628 52.8715 29.204 52.8715C27.2619 52.8715 25.7962 54.186 25.7962 56.3038V64.9213H21.4358V49.147Z" fill="#192024"/>
<path d="M42.212 47.2495C43.6776 47.2495 44.8502 46.0445 44.8502 44.657C44.8502 43.2694 43.6777 42.0645 42.2486 42.0645C40.7829 42.0645 39.6104 43.2694 39.6104 44.657C39.6104 46.008 40.7829 47.2495 42.212 47.2495ZM40.0501 64.9225H44.4105V49.1483H40.0501V64.9225Z" fill="#192024"/>
<path d="M46.4991 49.1465H51.1893L54.8535 59.7722H55.0001L58.6643 49.1465H63.3546L57.3819 64.9208H52.5451L46.4991 49.1465Z" fill="#192024"/>
<path d="M63.6477 57.0341C63.6477 52.2142 66.8722 48.8184 71.7823 48.8184C76.6924 48.8184 79.807 52.3603 79.807 56.7055C79.807 57.8374 79.6604 58.7503 79.6604 58.7503H68.228C68.4845 60.2474 70.0968 61.3794 72.5151 61.3794C74.7503 61.3794 76.1794 60.4665 77.0954 59.5901L79.3673 62.7669C78.0481 63.9719 75.7397 65.2134 72.222 65.2134C67.1654 65.2499 63.6477 61.854 63.6477 57.0341ZM75.3 55.4275C75.1168 53.8574 73.761 52.5794 71.7457 52.5794C69.7303 52.5794 68.3379 53.8939 68.228 55.4275H75.3Z" fill="#192024"/>
<path d="M82.9583 49.147H87.3187V51.4109H87.4653C87.4653 51.4109 89.0775 48.8184 92.1555 48.8184H92.4853V53.4922C92.4853 53.4922 92.0089 53.3462 91.0196 53.3462C88.931 53.3462 87.3187 54.4781 87.3187 57.0706V64.9578H82.9583V49.147V49.147Z" fill="#192024"/>
<path d="M93.6578 62.5113L96.0395 59.4806C96.0395 59.4806 97.9449 61.3794 100.51 61.3794C101.976 61.3794 102.195 60.7586 102.195 60.1379C102.195 58.3486 94.4639 58.8233 94.4639 53.6383C94.4639 50.7536 96.3693 48.8184 100.4 48.8184C104.431 48.8184 106.483 51.0457 106.483 51.0457L104.247 54.0034C104.247 54.0034 102.635 52.5794 100.363 52.5794C99.2274 52.5794 98.861 53.2001 98.861 53.6748C98.861 55.464 106.702 55.1354 106.702 60.2839C106.702 63.3511 104.687 65.2864 100.327 65.2864C96.0395 65.2499 93.6578 62.5113 93.6578 62.5113Z" fill="#192024"/>
<path d="M111.869 47.2495C113.335 47.2495 114.507 46.0445 114.507 44.657C114.507 43.2694 113.335 42.0645 111.906 42.0645C110.44 42.0645 109.267 43.2694 109.267 44.657C109.267 46.008 110.44 47.2495 111.869 47.2495ZM109.707 64.9225H114.068V49.1483H109.707V64.9225Z" fill="#192024"/>
<path d="M130.63 70.8009V66.8939C130.63 66.8939 131.436 67.2225 132.425 67.2225C133.891 67.2225 134.734 66.4192 135.173 65.2873L135.393 64.7395L129.237 49.1113H133.928L137.629 59.591H137.775L141.329 49.1113H146.02L139.644 65.908C138.325 69.4499 136.419 71.2756 133.488 71.2756C131.912 71.3122 130.63 70.8009 130.63 70.8009Z" fill="#192024"/>
<path d="M11.7255 33.8846C11.2492 33.9941 10.0034 34.3593 9.30715 34.3593C8.02467 34.3593 7.43839 33.8116 7.43839 32.351V26.4721H11.1026V22.4555H7.43839V17.9277H5.53299C4.36044 17.9277 3.40774 18.8771 3.40774 20.0456V22.5651H1.83212C0.842773 22.5651 0 23.3684 0 24.3908V26.4721H3.1146V33.0082C3.1146 36.6962 4.98336 38.5584 8.20788 38.5584C9.74686 38.5584 11.5423 38.0838 12.2385 37.8647L11.7255 33.8846Z" fill="#192024"/>
<path d="M128.065 60.576C127.589 60.6855 126.343 61.0507 125.647 61.0507C124.364 61.0507 123.778 60.503 123.778 59.0424V53.1635H127.442V49.1469H123.778V44.6191H121.872C120.7 44.6191 119.747 45.5685 119.747 46.737V49.2565H118.098C117.109 49.2565 116.266 50.0598 116.266 51.0822V53.1635H119.381V59.6996C119.381 63.3876 121.249 65.2498 124.474 65.2498C126.013 65.2498 127.808 64.7752 128.505 64.5561L128.065 60.576Z" fill="#192024"/>
<path d="M186.143 0H178.924C176.213 0 173.648 1.05892 171.706 2.95768C169.801 4.85643 168.738 7.44896 168.738 10.151V20.9958H161.812C159.101 20.9958 156.536 22.0548 154.594 23.9535C152.689 25.8523 151.626 28.4448 151.626 31.1469V38.3402C178.082 40.3851 188.048 23.99 186.143 0ZM174.308 54.5162H180.354C182.625 54.5162 184.787 53.6033 186.399 52.0332C188.012 50.4266 188.891 48.2722 188.891 46.0083V40.239H198.015C200.287 40.239 202.449 39.3261 204.061 37.756C205.673 36.1494 206.553 33.995 206.553 31.7311V25.7062C186.363 24.0996 172.585 32.4249 174.308 54.5162Z" fill="#6E1EEF"/>
<path d="M1.83215 80.8076C1.83215 78.5802 3.59098 76.791 5.86281 76.791C8.09799 76.791 9.89346 78.5437 9.89346 80.8076C9.89346 83.035 8.13463 84.8242 5.86281 84.8242C3.62763 84.8242 1.83215 83.035 1.83215 80.8076ZM8.2812 80.8076C8.2812 79.347 7.21857 78.3246 5.86281 78.3246C4.50704 78.3246 3.44442 79.3835 3.44442 80.8076C3.44442 82.2682 4.50704 83.2906 5.86281 83.2906C7.21857 83.2906 8.2812 82.2317 8.2812 80.8076Z" fill="#192024"/>
<path d="M12.2752 78.4696H11.066V76.936H12.2752V75.8041C12.2752 74.1244 13.1547 73.248 14.6936 73.248C15.4265 73.248 15.9028 73.5036 15.9028 73.5036V75.0373C15.9028 75.0373 15.4998 74.7817 15.0234 74.7817C14.2906 74.7817 13.8875 75.1833 13.8875 75.9866V76.936H15.7196V78.4696H13.8875V84.6406H12.2752V78.4696Z" fill="#192024"/>
<path d="M23.8908 73.4297H25.8329L30.3399 84.6396H28.5078L27.3719 81.755H22.3885L21.2526 84.6396H19.4205L23.8908 73.4297ZM26.7123 80.1484L24.8802 75.511L23.0481 80.1484H26.7123Z" fill="#192024"/>
<path d="M31.6957 76.9371H33.3079V78.069C33.3079 78.069 34.1141 76.791 35.9462 76.791C37.8882 76.791 39.5738 78.4707 39.5738 80.8076C39.5738 83.1445 37.8882 84.8242 35.9462 84.8242C34.1141 84.8242 33.3079 83.5462 33.3079 83.5462V88.001H31.6957V76.9371ZM37.9615 80.8076C37.9615 79.347 36.8989 78.3246 35.6164 78.3246C34.3339 78.3246 33.2713 79.3835 33.2713 80.8076C33.2713 82.2682 34.3339 83.2906 35.6164 83.2906C36.9355 83.2906 37.9615 82.2317 37.9615 80.8076Z" fill="#192024"/>
<path d="M41.4059 76.9371H43.0181V78.069C43.0181 78.069 43.8243 76.791 45.6564 76.791C47.5984 76.791 49.284 78.4707 49.284 80.8076C49.284 83.1445 47.5984 84.8242 45.6564 84.8242C43.8243 84.8242 43.0181 83.5462 43.0181 83.5462V88.001H41.4059V76.9371ZM47.6717 80.8076C47.6717 79.347 46.6091 78.3246 45.3266 78.3246C44.0441 78.3246 42.9815 79.3835 42.9815 80.8076C42.9815 82.2682 44.0441 83.2906 45.3266 83.2906C46.6457 83.2906 47.6717 82.2317 47.6717 80.8076Z" fill="#192024"/>
<path d="M51.1894 73.4297H52.8017V84.6396H51.1894V73.4297Z" fill="#192024"/>
<path d="M55.1101 74.5627C55.1101 74.0149 55.5865 73.6133 56.0628 73.6133C56.5392 73.6133 57.0155 74.0149 57.0155 74.5627C57.0155 75.1104 56.5392 75.512 56.0628 75.512C55.5865 75.512 55.1101 75.1104 55.1101 74.5627ZM55.2933 76.9361H56.9056V84.6407H55.2933V76.9361Z" fill="#192024"/>
<path d="M58.811 80.8076C58.811 78.5802 60.5698 76.791 62.7683 76.791C64.9302 76.791 66.5425 78.3977 66.5425 80.552C66.5425 81.0267 66.4692 81.3553 66.4692 81.3553H60.5332C60.6797 82.4143 61.6691 83.2906 62.9516 83.2906C64.3073 83.2906 65.1867 82.2317 65.1867 82.2317L66.1394 83.3636C66.1394 83.3636 65.0768 84.8242 62.8416 84.8242C60.5698 84.8242 58.811 83.035 58.811 80.8076ZM64.857 80.0043C64.6005 78.9454 63.9043 78.2516 62.7683 78.2516C61.5592 78.2516 60.8263 78.9819 60.5332 80.0043H64.857Z" fill="#192024"/>
<path d="M67.8983 80.8056C67.8983 78.4687 69.5838 76.789 71.5258 76.789C73.358 76.789 74.1641 78.067 74.1641 78.067V73.4297H75.7764V84.6396H74.1641V83.5077C74.1641 83.5077 73.358 84.7857 71.5258 84.7857C69.5838 84.8222 67.8983 83.106 67.8983 80.8056ZM74.1641 80.8056C74.1641 79.345 73.1015 78.3226 71.819 78.3226C70.5365 78.3226 69.4739 79.3816 69.4739 80.8056C69.4739 82.2662 70.5365 83.2886 71.819 83.2886C73.1015 83.2886 74.1641 82.2297 74.1641 80.8056Z" fill="#192024"/>
<path d="M80.9429 83.107L82.1521 81.902C82.1521 81.902 83.0315 83.18 84.9736 83.18C86.4393 83.18 87.2088 82.3767 87.2088 81.5003C87.2088 79.0173 81.2727 80.5509 81.2727 76.3883C81.2727 74.7086 82.7384 73.248 85.1202 73.248C87.4653 73.248 88.6745 74.7086 88.6745 74.7086L87.4653 75.9136C87.4653 75.9136 86.6591 74.8547 85.1202 74.8547C83.7644 74.8547 83.0315 75.585 83.0315 76.3883C83.0315 78.8713 88.9676 77.3377 88.9676 81.5003C88.9676 83.253 87.4286 84.7866 84.9369 84.7866C82.2621 84.8232 80.9429 83.107 80.9429 83.107Z" fill="#192024"/>
<path d="M90.36 80.8076C90.36 78.5802 92.1188 76.791 94.3906 76.791C96.5525 76.791 97.6152 78.3246 97.6152 78.3246L96.4792 79.3835C96.4792 79.3835 95.7464 78.3246 94.3906 78.3246C93.0349 78.3246 91.9722 79.3835 91.9722 80.8076C91.9722 82.2682 93.0349 83.2906 94.3906 83.2906C95.7464 83.2906 96.5525 82.1587 96.5525 82.1587L97.6884 83.2176C97.6884 83.2176 96.5525 84.8242 94.3906 84.8242C92.1188 84.8242 90.36 83.035 90.36 80.8076Z" fill="#192024"/>
<path d="M99.1908 74.5627C99.1908 74.0149 99.6671 73.6133 100.143 73.6133C100.62 73.6133 101.096 74.0149 101.096 74.5627C101.096 75.1104 100.62 75.512 100.143 75.512C99.6671 75.512 99.1908 75.1104 99.1908 74.5627ZM99.3374 76.9361H100.95V84.6407H99.3374V76.9361Z" fill="#192024"/>
<path d="M102.855 80.8076C102.855 78.5802 104.614 76.791 106.812 76.791C109.011 76.791 110.587 78.3977 110.587 80.552C110.587 81.0267 110.513 81.3553 110.513 81.3553H104.577C104.724 82.4143 105.713 83.2906 106.996 83.2906C108.351 83.2906 109.231 82.2317 109.231 82.2317L110.183 83.3636C110.183 83.3636 109.121 84.8242 106.886 84.8242C104.65 84.8242 102.855 83.035 102.855 80.8076ZM108.901 80.0043C108.644 78.9454 107.948 78.2516 106.812 78.2516C105.603 78.2516 104.87 78.9819 104.577 80.0043H108.901Z" fill="#192024"/>
<path d="M112.419 76.9371H114.031V78.069C114.031 78.069 114.837 76.791 116.449 76.791C118.208 76.791 119.491 78.069 119.491 80.1504V84.6416H117.878V80.1504C117.878 79.0184 117.146 78.3246 116.12 78.3246C114.91 78.3246 114.031 79.201 114.031 80.479V84.6416H112.419V76.9371V76.9371Z" fill="#192024"/>
<path d="M121.323 80.8076C121.323 78.5802 123.082 76.791 125.353 76.791C127.515 76.791 128.578 78.3246 128.578 78.3246L127.442 79.3835C127.442 79.3835 126.709 78.3246 125.353 78.3246C123.998 78.3246 122.935 79.3835 122.935 80.8076C122.935 82.2682 123.998 83.2906 125.353 83.2906C126.709 83.2906 127.515 82.1587 127.515 82.1587L128.651 83.2176C128.651 83.2176 127.515 84.8242 125.353 84.8242C123.082 84.8242 121.323 83.035 121.323 80.8076Z" fill="#192024"/>
<path d="M129.604 80.8076C129.604 78.5802 131.363 76.791 133.561 76.791C135.723 76.791 137.335 78.3977 137.335 80.552C137.335 81.0267 137.262 81.3553 137.262 81.3553H131.326C131.473 82.4143 132.462 83.2906 133.744 83.2906C135.1 83.2906 135.98 82.2317 135.98 82.2317L136.932 83.3636C136.932 83.3636 135.87 84.8242 133.635 84.8242C131.363 84.8242 129.604 83.035 129.604 80.8076ZM135.613 80.0043C135.357 78.9454 134.661 78.2516 133.525 78.2516C132.315 78.2516 131.583 78.9819 131.289 80.0043H135.613Z" fill="#192024"/>
<path d="M138.435 83.3623L139.497 82.3033C139.497 82.3033 140.304 83.3623 141.513 83.3623C142.392 83.3623 142.868 82.8876 142.868 82.4129C142.868 81.1349 138.765 81.7556 138.765 79.0536C138.765 77.8486 139.827 76.8262 141.586 76.8262C143.418 76.8262 144.334 77.8851 144.334 77.8851L143.272 78.871C143.272 78.871 142.612 78.2137 141.586 78.2137C140.78 78.2137 140.377 78.6154 140.377 79.017C140.377 80.2951 144.481 79.6743 144.481 82.3764C144.481 83.6544 143.345 84.7863 141.513 84.7863C139.461 84.8229 138.435 83.3623 138.435 83.3623Z" fill="#192024"/>
</g>
<defs>
<clipPath id="clip0_8921_51064">
<rect width="206.516" height="88" fill="white"/>
</clipPath>
</defs>
</svg>
